<?xml version="1.0" encoding="utf-8"?>
<!-- Generator: Adobe Illustrator 27.5.0, SVG Export Plug-In . SVG Version: 6.00 Build 0)  -->
<svg version="1.1" id="Capa_1" xmlns="http://www.w3.org/2000/svg" xmlns:xlink="http://www.w3.org/1999/xlink" x="0px" y="0px"
	 viewBox="0 0 2122 2122" style="enable-background:new 0 0 2122 2122;" xml:space="preserve">
<g>
	<rect x="-0.005" y="0" style="fill:#FFFFFF;" width="2121.317" height="2121.323"/>
	
		<ellipse transform="matrix(0.7071 -0.7071 0.7071 0.7071 -439.3419 1060.6571)" style="fill:#4C7EC0;" cx="1060.655" cy="1060.661" rx="768.376" ry="768.377"/>
	<g>
		<g>
			<path style="fill:#DEB4C7;" d="M1523.989,598.051c-2.475,22.74-4.512,45.885-1.052,68.646
				c3.576,23.556,9.272,46.733,14.178,70.034c5.116,24.29,8.94,48.752,8.921,73.627c-0.02,24.411-6.071,47.561-14.816,70.158
				c-7.771,20.073-17.106,39.425-23.547,60.007c-6.09,19.474-7.713,39.907-8,60.205c-0.624,43.02,7.508,87.038,23.566,126.928
				c2.271,5.644,11.523,3.182,9.218-2.543c-15.888-39.471-23.255-81.902-23.226-124.385c0.02-22.592,3.157-44.438,10.319-65.878
				c6.811-20.383,16.453-39.725,23.951-59.854c16.02-43.018,13.252-87.191,4.726-131.486c-4.497-23.347-10.26-46.426-14.524-69.822
				c-4.589-25.186-2.904-50.358-0.151-75.637C1534.22,591.924,1524.646,591.987,1523.989,598.051L1523.989,598.051z"/>
		</g>
		<path style="fill:#D89ABF;" d="M1529.387,574.65c-4.058,5.725-8.312,11.274-12.316,16.936c-1.106,1.571-2.626,3.72-1.783,5.849
			c1.793,4.553,8.77,0.629,12.253,1.925c3.907,1.457,6.923,4.065,11.698,2.47c2.383-0.797,3.562-2.553,6.12-3.203
			c1.798-0.458,3.411-0.248,4.117-2.334c1.15-3.389-2.806-7.189-3.937-10.005c-1.978-4.921-4.034-8.509-4.146-13.791"/>
		<path style="fill:#D89ABF;" d="M1636.49,397.578c-0.351,85.895-71.284,185.646-105.291,185.646
			c-36.711,0-108.959-112.64-105.291-185.646c2.914-58.078,47.138-105.294,105.291-105.294
			C1589.353,292.285,1636.729,339.427,1636.49,397.578z"/>
		<path style="fill:#D280B5;" d="M1518.118,543.909c-17.014-13.427-31.63-29.793-44.073-47.493
			c-11.888-16.913-22.612-35.332-29.428-54.923c-9.846-28.285-11.791-58.292-7.927-87.698c-6.227,13.34-9.998,28.168-10.782,43.783
			c-3.668,73.006,68.58,185.646,105.291,185.646c8.366,0,18.967-6.049,30.202-16.431
			C1545.752,562.419,1531.078,554.143,1518.118,543.909z"/>
		<path style="fill:#DBB1C8;" d="M1615.857,354.29c20.906,37.42,18.465,78.585-5.452,91.944
			c-23.912,13.362-60.244-6.143-81.15-43.564c-20.906-37.42-18.465-78.585,5.447-91.946
			C1558.614,297.364,1594.951,316.869,1615.857,354.29z"/>
		<path style="fill:#FFFFFF;" d="M1545.396,306.635c6.125-3.678,19.299,1.371,24.877,3.486c16.94,6.419,34.017,23.449,43.001,39.225
			c12.594,22.107,19.61,50.707,11.639,75.932c-0.721,2.277-2.324-2.451-2.426-2.648c-2.047-3.949-2.573-9.501-3.722-13.781
			c-9.354-34.792-25.817-62.94-53.973-85.588C1561.056,320.253,1540.783,309.408,1545.396,306.635z"/>
	</g>
	<g>
		<g>
			<path style="fill:#DEB4C7;" d="M562.708,867.317c-2.47,22.74-4.507,45.885-1.048,68.645c3.576,23.557,9.267,46.733,14.173,70.034
				c5.12,24.29,8.945,48.753,8.92,73.627c-0.019,24.412-6.071,47.562-14.816,70.158c-7.766,20.073-17.106,39.425-23.542,60.008
				c-6.095,19.474-7.718,39.907-8.005,60.205c-0.619,43.02,7.508,87.038,23.566,126.928c2.275,5.644,11.528,3.183,9.223-2.543
				c-15.888-39.471-23.259-81.902-23.225-124.385c0.014-22.594,3.157-44.439,10.319-65.878
				c6.807-20.383,16.448-39.725,23.946-59.854c16.024-43.018,13.252-87.191,4.726-131.486c-4.492-23.347-10.26-46.426-14.524-69.822
				c-4.59-25.186-2.899-50.358-0.151-75.637C572.94,861.19,563.371,861.254,562.708,867.317L562.708,867.317z"/>
		</g>
		<path style="fill:#D89ABF;" d="M568.107,843.916c-4.054,5.725-8.312,11.274-12.311,16.936c-1.111,1.571-2.626,3.72-1.788,5.849
			c1.793,4.553,8.77,0.629,12.258,1.925c3.907,1.457,6.918,4.065,11.698,2.47c2.378-0.797,3.557-2.553,6.115-3.203
			c1.803-0.458,3.411-0.249,4.122-2.334c1.149-3.388-2.806-7.189-3.937-10.003c-1.978-4.923-4.034-8.511-4.146-13.793"/>
		<path style="fill:#D89ABF;" d="M675.215,666.844c-0.351,85.895-71.284,185.647-105.296,185.647
			c-36.706,0-108.955-112.641-105.286-185.647c2.914-58.078,47.137-105.293,105.286-105.293
			C628.073,561.552,675.449,608.694,675.215,666.844z"/>
		<path style="fill:#D280B5;" d="M556.842,813.176c-17.013-13.427-31.635-29.793-44.073-47.493
			c-11.888-16.914-22.611-35.335-29.432-54.923c-9.846-28.285-11.786-58.292-7.927-87.698c-6.222,13.34-9.998,28.166-10.777,43.783
			c-3.669,73.006,68.58,185.647,105.286,185.647c8.37,0,18.972-6.049,30.207-16.431C584.477,831.683,569.802,823.41,556.842,813.176
			z"/>
		<path style="fill:#DBB1C8;" d="M654.577,623.556c20.906,37.42,18.465,78.584-5.447,91.944
			c-23.912,13.362-60.248-6.144-81.15-43.564c-20.911-37.42-18.47-78.584,5.447-91.946
			C597.339,566.63,633.675,586.136,654.577,623.556z"/>
		<path style="fill:#FFFFFF;" d="M584.116,575.902c6.129-3.678,19.304,1.371,24.882,3.486c16.94,6.419,34.012,23.449,43.001,39.225
			c12.589,22.107,19.61,50.706,11.634,75.932c-0.716,2.277-2.319-2.451-2.422-2.648c-2.046-3.949-2.572-9.501-3.722-13.781
			c-9.354-34.792-25.817-62.94-53.973-85.588C599.775,589.519,579.503,578.672,584.116,575.902z"/>
	</g>
	<g>
		<path style="fill:#FCB440;" d="M482.801,709.624l20.716-6.677c0,0-10.967,49.968-20.716,48.748
			c-9.749-1.218-9.749-1.218-9.749-1.218L482.801,709.624z"/>
		<path style="fill:#FFD140;" d="M375.868,914.063l16.17-5.213c0,0-8.56,39.006-16.17,38.056c-7.61-0.952-7.61-0.952-7.61-0.952
			L375.868,914.063z"/>
		<path style="fill:#FFD140;" d="M883.215,370.387l16.175-5.211c0,0-8.565,39.004-16.175,38.054c-7.61-0.952-7.61-0.952-7.61-0.952
			L883.215,370.387z"/>
		<path style="fill:#FFD140;" d="M792.662,683.551l15.63,6.662c0,0-32.029,23.852-37.155,18.146
			c-5.125-5.707-5.125-5.707-5.125-5.707L792.662,683.551z"/>
		<path style="fill:#FFD140;" d="M1126.8,426.253l16.502,4.064c0,0-27.78,28.689-33.759,23.88c-5.973-4.809-5.973-4.809-5.973-4.809
			L1126.8,426.253z"/>
		<path style="fill:#FFD140;" d="M744.048,989.076l16.175-5.211c0,0-8.565,39.004-16.175,38.053c-7.61-0.95-7.61-0.95-7.61-0.95
			L744.048,989.076z"/>
		<path style="fill:#FFD140;" d="M1235.551,509.347l16.175-5.211c0,0-8.565,39.006-16.175,38.053c-7.61-0.95-7.61-0.95-7.61-0.95
			L1235.551,509.347z"/>
		<path style="fill:#EB3C96;" d="M606.392,528.774c10.655,12.955,16.755,31.988,16.755,31.988s0,0,7.766-6.017
			c6.27-4.857-10.422-33.878-17.101-44.901C612.521,516.555,610.43,522.998,606.392,528.774z"/>
		<path style="fill:#EB3C96;" d="M603.985,993.548c0.755-15.98,8.624-33.345,8.624-33.345s0,0-9.345-0.714
			c-7.542-0.578-14.31,30.626-16.643,42.697C591.834,998.267,597.432,995.049,603.985,993.548z"/>
		<path style="fill:#EB3C96;" d="M590.991,682.528c0.755-15.978,8.624-33.342,8.624-33.342s0,0-9.34-0.714
			c-7.542-0.577-14.315,30.626-16.643,42.697C578.835,687.249,584.438,684.029,590.991,682.528z"/>
		<path style="fill:#EB3C96;" d="M674.669,782.223c-10.855-11.749-17.705-29.54-17.705-29.54s0,0-7.065,6.156
			c-5.705,4.967,11.781,31.686,18.743,41.817C669.505,794.194,671.142,787.946,674.669,782.223z"/>
		<path style="fill:#00B4E9;" d="M703.546,431.625c0.755-15.978,8.624-33.342,8.624-33.342s0,0-9.34-0.714
			c-7.542-0.577-14.314,30.626-16.648,42.697C691.391,436.346,696.993,433.127,703.546,431.625z"/>
		<path style="fill:#00B4E9;" d="M514.733,888.228c-15.474-4.051-30.826-15.35-30.826-15.35s0,0-2.641,8.991
			c-2.124,7.257,26.996,20.351,38.324,25.138C516.833,901.098,514.845,894.951,514.733,888.228z"/>
		<path style="fill:#00B4E9;" d="M553.198,1135.246c0.75-15.978,8.624-33.342,8.624-33.342s0,0-9.345-0.714
			c-7.542-0.577-14.309,30.626-16.643,42.697C541.042,1139.967,546.64,1136.749,553.198,1135.246z"/>
		<path style="fill:#EB3C96;" d="M1025.967,348.482c10.655,12.952,16.75,31.988,16.75,31.988s0,0,7.766-6.02
			c6.271-4.855-10.421-33.875-17.096-44.901C1032.092,336.263,1030.002,342.704,1025.967,348.482z"/>
		<path style="fill:#EB3C96;" d="M392.906,1272.196c10.656,12.955,16.755,31.988,16.755,31.988s0,0,7.766-6.017
			c6.27-4.857-10.422-33.876-17.101-44.901C399.035,1259.979,396.945,1266.42,392.906,1272.196z"/>
		<path style="fill:#00B4E9;" d="M1004.335,456.294c-11.863-10.728-20.277-27.832-20.277-27.832s0,0-6.49,6.765
			c-5.232,5.46,14.578,30.502,22.421,39.969C1000.272,468.682,1001.339,462.312,1004.335,456.294z"/>
		<path style="fill:#00B4E9;" d="M419.678,1105.648c-11.864-10.728-20.283-27.832-20.283-27.832s0,0-6.49,6.765
			c-5.233,5.459,14.577,30.502,22.422,39.968C415.61,1118.036,416.677,1111.663,419.678,1105.648z"/>
		<path style="fill:#00B4E9;" d="M783.873,523.795c-13.384,8.762-32.058,12.575-32.058,12.575s0,0,4.901,7.988
			c3.956,6.446,33.198-6.378,44.341-11.569C794.825,530.869,788.93,528.221,783.873,523.795z"/>
		<path style="fill:#FCB440;" d="M656.233,1524.245l20.721-6.677c0,0-10.967,49.966-20.721,48.748
			c-9.744-1.22-9.744-1.22-9.744-1.22L656.233,1524.245z"/>
		<path style="fill:#FFD140;" d="M644.18,1233.619l16.175-5.211c0,0-8.565,39.006-16.175,38.054c-7.61-0.95-7.61-0.95-7.61-0.95
			L644.18,1233.619z"/>
		<path style="fill:#FFD140;" d="M1099.288,1678.29l16.175-5.213c0,0-8.565,39.006-16.175,38.056c-7.61-0.952-7.61-0.952-7.61-0.952
			L1099.288,1678.29z"/>
		<path style="fill:#FFD140;" d="M859.434,1411.015l16.17-5.211c0,0-8.56,39.006-16.17,38.054c-7.615-0.95-7.615-0.95-7.615-0.95
			L859.434,1411.015z"/>
		<path style="fill:#FCB240;" d="M775.984,1119.029c9.203,15.279,6.027,35.635,6.027,35.635s0,0,9.247-3.333
			c6.856-2.47,1.55-30.348-1.651-44.58C785.003,1110.762,780.491,1114.893,775.984,1119.029z"/>
		<path style="fill:#FCB240;" d="M514.104,1547.338c9.203,15.279,6.027,35.635,6.027,35.635s0,0,9.243-3.33
			c6.86-2.473,1.549-30.351-1.647-44.583C523.118,1539.072,518.611,1543.202,514.104,1547.338z"/>
		<path style="fill:#EB3C96;" d="M763.483,1467.884c10.655,12.953,16.75,31.985,16.75,31.985s0,0,7.771-6.017
			c6.266-4.855-10.426-33.879-17.101-44.901C769.612,1455.665,767.517,1462.106,763.483,1467.884z"/>
		<path style="fill:#EB3C96;" d="M886.44,1198.381c10.655,12.955,16.75,31.988,16.75,31.988s0,0,7.771-6.017
			c6.266-4.857-10.426-33.878-17.106-44.901C892.564,1186.162,890.474,1192.605,886.44,1198.381z"/>
		<path style="fill:#EB3C96;" d="M540.774,1380.279c0.75-15.978,8.624-33.342,8.624-33.342s0,0-9.345-0.716
			c-7.542-0.578-14.309,30.628-16.643,42.697C528.618,1384.997,534.221,1381.779,540.774,1380.279z"/>
		<path style="fill:#EB3C96;" d="M817.242,1693.555c0.755-15.98,8.624-33.342,8.624-33.342s0,0-9.345-0.716
			c-7.542-0.577-14.309,30.626-16.643,42.697C805.085,1698.274,810.689,1695.056,817.242,1693.555z"/>
		<path style="fill:#EB3C96;" d="M934.338,1600.778c-10.86-11.752-17.71-29.54-17.71-29.54s0,0-7.065,6.156
			c-5.705,4.967,11.781,31.686,18.743,41.817C929.168,1612.749,930.805,1606.5,934.338,1600.778z"/>
		<path style="fill:#00B4E9;" d="M785.291,1289.214c-5.272,8.955-9.598,29.087-11.367,38.241c3.542-2.665,7.289-4.952,11.367-6.65
			V1289.214z"/>
		<path style="fill:#00B4E9;" d="M1089.46,1540.239c-15.474-4.054-30.831-15.352-30.831-15.352s0,0-2.631,8.994
			c-2.134,7.257,26.992,20.351,38.314,25.135C1091.56,1553.107,1089.573,1546.961,1089.46,1540.239z"/>
		<path style="fill:#00B4E9;" d="M1350.488,1766.276c12.507-9.976,30.748-15.52,30.748-15.52s0,0-5.627-7.493
			c-4.541-6.046-32.458,9.454-43.064,15.666C1338.922,1760.256,1345.041,1762.342,1350.488,1766.276z"/>
		<path style="fill:#FFD140;" d="M1603.248,517.371l16.176-5.211c0,0-8.56,39.006-16.176,38.053c-7.61-0.95-7.61-0.95-7.61-0.95
			L1603.248,517.371z"/>
		<path style="fill:#FFD140;" d="M1649.908,1080.708l16.171-5.211c0,0-8.56,39.006-16.171,38.053c-7.61-0.95-7.61-0.95-7.61-0.95
			L1649.908,1080.708z"/>
		<path style="fill:#FFD140;" d="M1526.196,1303.484l16.171-5.211c0,0-8.56,39.006-16.171,38.054c-7.61-0.953-7.61-0.953-7.61-0.953
			L1526.196,1303.484z"/>
		<path style="fill:#FCB240;" d="M1499.117,410.518c9.198,15.279,6.022,35.635,6.022,35.635s0,0,9.247-3.33
			c6.855-2.473,1.55-30.351-1.647-44.582C1508.13,402.251,1503.618,406.382,1499.117,410.518z"/>
		<path style="fill:#EB3C96;" d="M1609.031,652.655c0.75-15.98,8.624-33.342,8.624-33.342s0,0-9.344-0.716
			c-7.542-0.577-14.314,30.626-16.643,42.697C1596.87,657.373,1602.474,654.155,1609.031,652.655z"/>
		<path style="fill:#EB3C96;" d="M1533.007,1231.477c0.76-15.978,8.624-33.342,8.624-33.342s0,0-9.339-0.716
			c-7.542-0.577-14.309,30.628-16.643,42.697C1520.856,1236.196,1526.459,1232.978,1533.007,1231.477z"/>
		<path style="fill:#00B4E9;" d="M1386.917,505.644c0.755-15.978,8.624-33.342,8.624-33.342s0,0-9.34-0.714
			c-7.542-0.58-14.314,30.626-16.643,42.697C1374.761,510.362,1380.364,507.145,1386.917,505.644z"/>
		<path style="fill:#00B4E9;" d="M1542.459,1023.653c-11.868-10.728-20.287-27.832-20.287-27.832s0,0-6.48,6.765
			c-5.237,5.46,14.578,30.502,22.417,39.969C1538.386,1036.04,1539.458,1029.67,1542.459,1023.653z"/>
		<path style="fill:#00B4E9;" d="M1682.112,866.63c-11.868-10.728-20.282-27.832-20.282-27.832s0,0-6.485,6.765
			c-5.233,5.459,14.573,30.502,22.417,39.966C1678.044,879.018,1679.111,872.644,1682.112,866.63z"/>
		<path style="fill:#00B4E9;" d="M1356.958,1047.556c-14.329,7.106-33.33,8.665-33.33,8.665s0,0,3.912,8.512
			c3.167,6.872,33.725-2.373,45.408-6.2C1366.99,1055.884,1361.455,1052.552,1356.958,1047.556z"/>
		<path style="fill:#EB3C96;" d="M1400.895,609.89c13.69-9.691,33.116-14.397,33.116-14.397s0,0-5.443-8.183
			c-4.39-6.601-34.543,7.947-46.022,13.81C1389.149,602.894,1395.424,605.444,1400.895,609.89z"/>
		<path style="fill:#EB3C96;" d="M1244.676,434.908c0.755-15.978,8.624-33.34,8.624-33.34s0,0-9.345-0.716
			c-7.542-0.577-14.309,30.626-16.643,42.697C1232.525,439.629,1238.123,436.412,1244.676,434.908z"/>
		<path style="fill:#EB3C96;" d="M1644.924,1279.446c13.691-9.691,33.116-14.397,33.116-14.397s0,0-5.437-8.182
			c-4.395-6.602-34.543,7.946-46.022,13.81C1633.182,1272.449,1639.457,1275,1644.924,1279.446z"/>
		<path style="fill:#FFD140;" d="M1661.879,1392.627l16.176-5.211c0,0-8.561,39.006-16.176,38.053c-7.61-0.95-7.61-0.95-7.61-0.95
			L1661.879,1392.627z"/>
		<path style="fill:#FFD140;" d="M1266.035,1448.722l15.635,6.662c0,0-32.034,23.852-37.159,18.144
			c-5.126-5.705-5.126-5.705-5.126-5.705L1266.035,1448.722z"/>
		<path style="fill:#EB3C96;" d="M1273.538,917.461c-1.51-0.417-3.187-1.807-3.444-3.449c-0.117-0.743-0.248-1.483-0.37-2.227
			c-0.629,1.135-1.262,2.271-2.027,3.362c10.656,12.955,16.755,31.988,16.755,31.988s0,0,7.766-6.017
			c3.454-2.677-0.073-12.689-5.043-22.986C1284.569,919.371,1280.432,919.349,1273.538,917.461z"/>
		<path style="fill:#EB3C96;" d="M1274.819,1200.69c0.755-15.98,8.624-33.344,8.624-33.344s0,0-9.34-0.714
			c-7.542-0.577-14.314,30.626-16.643,42.697C1262.664,1205.409,1268.267,1202.191,1274.819,1200.69z"/>
		<path style="fill:#EB3C96;" d="M1462.22,1660.814c-10.855-11.752-17.705-29.54-17.705-29.54s0,0-7.064,6.156
			c-5.705,4.967,11.781,31.686,18.743,41.817C1457.056,1672.785,1458.693,1666.534,1462.22,1660.814z"/>
		<path style="fill:#00B4E9;" d="M1427.92,942.172c0.755-15.978,8.619-33.34,8.619-33.34s0,0-9.34-0.716
			c-7.542-0.577-14.309,30.626-16.643,42.697C1415.765,946.893,1421.368,943.672,1427.92,942.172z"/>
		<path style="fill:#00B4E9;" d="M1101.875,1046.569c0.76-15.978,8.623-33.342,8.623-33.342s0,0-9.339-0.716
			c-7.542-0.577-14.309,30.629-16.643,42.697C1089.724,1051.288,1095.327,1048.069,1101.875,1046.569z"/>
		<path style="fill:#00B4E9;" d="M1562.541,1546.035c-13.388,8.763-32.068,12.577-32.068,12.577s0,0,4.906,7.985
			c3.951,6.446,33.194-6.375,44.341-11.568C1573.489,1553.109,1567.594,1550.463,1562.541,1546.035z"/>
	</g>
	<g>
		<g>
			<path style="fill:#EB71A6;" d="M1507.896,895.897c-2.47,22.74-4.507,45.885-1.052,68.645
				c3.581,23.557,9.272,46.733,14.178,70.034c5.12,24.29,8.945,48.753,8.925,73.628c-0.024,24.411-6.075,47.561-14.821,70.158
				c-7.766,20.073-17.106,39.425-23.542,60.007c-6.095,19.474-7.718,39.907-8.01,60.205c-0.614,43.02,7.513,87.038,23.571,126.928
				c2.271,5.647,11.528,3.182,9.218-2.543c-15.883-39.471-23.254-81.902-23.225-124.385c0.02-22.592,3.157-44.439,10.324-65.878
				c6.806-20.383,16.448-39.725,23.946-59.854c16.024-43.018,13.257-87.191,4.726-131.486c-4.497-23.347-10.26-46.426-14.524-69.822
				c-4.589-25.186-2.904-50.358-0.146-75.637C1518.127,889.77,1508.558,889.833,1507.896,895.897L1507.896,895.897z"/>
		</g>
		<path style="fill:#EB3C96;" d="M1513.295,872.496c-4.054,5.725-8.312,11.274-12.312,16.936c-1.111,1.571-2.626,3.72-1.788,5.849
			c1.793,4.553,8.77,0.629,12.253,1.925c3.912,1.457,6.923,4.066,11.703,2.47c2.378-0.797,3.557-2.553,6.115-3.203
			c1.803-0.458,3.411-0.246,4.122-2.334c1.15-3.389-2.811-7.186-3.937-10.002c-1.983-4.924-4.034-8.509-4.146-13.793"/>
		<path style="fill:#EB3C96;" d="M1620.403,695.425c-0.351,85.895-71.289,185.646-105.296,185.646
			c-36.706,0-108.954-112.64-105.291-185.646c2.919-58.078,47.143-105.294,105.291-105.294
			C1573.26,590.131,1620.637,637.273,1620.403,695.425z"/>
		<path style="fill:#C43D96;" d="M1502.03,841.755c-17.013-13.427-31.629-29.793-44.073-47.493
			c-11.888-16.913-22.616-35.332-29.433-54.923c-9.846-28.285-11.786-58.292-7.927-87.698c-6.222,13.34-9.998,28.168-10.782,43.783
			c-3.663,73.006,68.585,185.646,105.291,185.646c8.371,0,18.972-6.049,30.207-16.431
			C1529.66,860.265,1514.99,851.99,1502.03,841.755z"/>
		<path style="fill:#EC58A0;" d="M1599.765,652.136c20.906,37.42,18.465,78.585-5.447,91.944
			c-23.912,13.362-60.249-6.143-81.15-43.564c-20.911-37.42-18.47-78.585,5.442-91.944
			C1542.527,595.21,1578.863,614.716,1599.765,652.136z"/>
		<path style="fill:#FFFFFF;" d="M1529.304,604.482c6.129-3.678,19.303,1.371,24.877,3.486c16.945,6.421,34.017,23.45,43.006,39.225
			c12.589,22.107,19.61,50.706,11.635,75.932c-0.716,2.28-2.324-2.451-2.426-2.648c-2.042-3.949-2.568-9.501-3.717-13.781
			c-9.354-34.792-25.817-62.938-53.973-85.588C1544.963,618.099,1524.686,607.254,1529.304,604.482z"/>
	</g>
	<g>
		<g>
			<path style="fill:#FAEC70;" d="M1334.371,692.784c-2.475,22.74-4.512,45.885-1.053,68.645
				c3.576,23.557,9.267,46.736,14.178,70.034c5.116,24.29,8.945,48.755,8.921,73.63c-0.025,24.409-6.071,47.559-14.816,70.158
				c-7.771,20.071-17.106,39.425-23.547,60.008c-6.095,19.474-7.713,39.905-8.005,60.202c-0.619,43.023,7.512,87.038,23.571,126.928
				c2.271,5.647,11.523,3.184,9.218-2.541c-15.888-39.471-23.254-81.902-23.225-124.387c0.014-22.592,3.157-44.439,10.319-65.876
				c6.811-20.383,16.453-39.725,23.951-59.856c16.024-43.016,13.252-87.189,4.721-131.486
				c-4.492-23.347-10.256-46.424-14.524-69.819c-4.59-25.189-2.899-50.358-0.146-75.639
				C1344.603,686.657,1335.034,686.723,1334.371,692.784L1334.371,692.784z"/>
		</g>
		<path style="fill:#F8D933;" d="M1339.77,669.385c-4.059,5.722-8.312,11.272-12.317,16.933c-1.111,1.573-2.621,3.72-1.784,5.851
			c1.793,4.553,8.77,0.626,12.249,1.925c3.912,1.454,6.928,4.065,11.703,2.468c2.383-0.797,3.562-2.55,6.12-3.201
			c1.797-0.458,3.411-0.249,4.117-2.334c1.154-3.388-2.806-7.189-3.937-10.005c-1.978-4.921-4.034-8.509-4.146-13.793"/>
		<path style="fill:#F8D933;" d="M1446.873,492.311c-0.351,85.898-71.284,185.647-105.291,185.647
			c-36.711,0-108.96-112.638-105.291-185.647c2.914-58.078,47.137-105.291,105.291-105.291
			C1399.735,387.02,1447.112,434.16,1446.873,492.311z"/>
		<path style="fill:#F7CE34;" d="M1328.5,638.643c-17.013-13.425-31.629-29.791-44.073-47.493
			c-11.888-16.911-22.611-35.333-29.427-54.921c-9.846-28.287-11.791-58.295-7.927-87.698c-6.226,13.337-9.998,28.166-10.782,43.78
			c-3.669,73.009,68.58,185.647,105.291,185.647c8.37,0,18.967-6.046,30.207-16.429
			C1356.135,657.152,1341.465,648.877,1328.5,638.643z"/>
		<path style="fill:#FAEC70;" d="M1426.24,449.023c20.906,37.42,18.465,78.587-5.447,91.946
			c-23.917,13.359-60.248-6.144-81.154-43.564c-20.906-37.42-18.465-78.587,5.447-91.946
			C1369.002,392.099,1405.333,411.603,1426.24,449.023z"/>
		<path style="fill:#FFFFFF;" d="M1355.779,401.369c6.129-3.676,19.298,1.372,24.877,3.486c16.94,6.421,34.017,23.451,43.001,39.225
			c12.589,22.107,19.61,50.708,11.64,75.932c-0.722,2.28-2.324-2.448-2.427-2.646c-2.046-3.949-2.572-9.503-3.722-13.781
			c-9.349-34.791-25.817-62.94-53.973-85.591C1371.433,414.986,1351.161,404.141,1355.779,401.369z"/>
	</g>
	<g>
		<g>
			<path style="fill:#FAEC70;" d="M626.63,610.226c-2.475,22.74-4.512,45.886-1.052,68.646c3.576,23.557,9.272,46.736,14.178,70.034
				c5.115,24.29,8.945,48.755,8.92,73.63c-0.02,24.409-6.071,47.559-14.816,70.158c-7.766,20.073-17.106,39.425-23.542,60.007
				c-6.095,19.474-7.717,39.907-8.01,60.202c-0.619,43.023,7.513,87.038,23.571,126.931c2.271,5.645,11.528,3.182,9.218-2.544
				c-15.883-39.471-23.255-81.902-23.225-124.387c0.014-22.592,3.157-44.438,10.319-65.876
				c6.812-20.382,16.453-39.725,23.951-59.856c16.024-43.015,13.252-87.188,4.721-131.485c-4.492-23.347-10.255-46.424-14.519-69.82
				c-4.59-25.189-2.904-50.358-0.151-75.639C636.862,604.099,627.293,604.165,626.63,610.226L626.63,610.226z"/>
		</g>
		<path style="fill:#F8D933;" d="M632.029,586.828c-4.058,5.722-8.312,11.271-12.316,16.933c-1.111,1.574-2.621,3.722-1.783,5.852
			c1.793,4.553,8.77,0.626,12.253,1.924c3.912,1.454,6.923,4.065,11.698,2.468c2.383-0.796,3.562-2.55,6.12-3.201
			c1.798-0.458,3.411-0.249,4.122-2.336c1.145-3.388-2.811-7.187-3.942-10.003c-1.978-4.921-4.029-8.509-4.146-13.793"/>
		<path style="fill:#F8D933;" d="M739.132,409.754C738.786,495.651,667.848,595.4,633.841,595.4
			c-36.711,0-108.959-112.638-105.291-185.646c2.919-58.078,47.138-105.291,105.291-105.291
			C691.995,304.463,739.371,351.605,739.132,409.754z"/>
		<path style="fill:#F7CE34;" d="M620.759,556.087c-17.008-13.427-31.63-29.792-44.073-47.496
			c-11.888-16.911-22.612-35.332-29.433-54.921c-9.841-28.285-11.786-58.294-7.922-87.698c-6.227,13.337-9.998,28.166-10.782,43.781
			C524.882,482.762,597.13,595.4,633.841,595.4c8.366,0,18.972-6.046,30.207-16.428
			C648.394,574.594,633.724,566.318,620.759,556.087z"/>
		<path style="fill:#FAEC70;" d="M718.499,366.465c20.906,37.42,18.465,78.587-5.447,91.946
			c-23.912,13.36-60.249-6.143-81.155-43.564c-20.907-37.42-18.465-78.585,5.451-91.946
			C661.261,309.542,697.592,329.045,718.499,366.465z"/>
		<path style="fill:#FFFFFF;" d="M648.038,318.811c6.129-3.676,19.304,1.371,24.877,3.486c16.94,6.421,34.017,23.452,43.001,39.228
			c12.589,22.105,19.615,50.707,11.639,75.932c-0.721,2.278-2.324-2.451-2.426-2.648c-2.047-3.949-2.568-9.503-3.718-13.781
			c-9.359-34.792-25.822-62.941-53.978-85.591C663.697,332.429,643.419,321.583,648.038,318.811z"/>
	</g>
	<g>
		<g>
			<path style="fill:#F0A44B;" d="M742.659,759.497c-6.64,0.137-27.055,1.693-31.966,15.535v12.185
				c0.697-2.229,7.756-15.169,31.966-14.823V759.497z"/>
			<path style="fill:#F0A44B;" d="M710.674,809.302c0,0-1.545-7.983,23.469-12.239c25.013-4.258,28.073-10.889,28.073-10.889v15.52
				c0,0-14.768,9.206-38.183,10.271L710.674,809.302z"/>
			<path style="fill:#F4C14F;" d="M710.674,775.001v14.901c0,0,36.268-5.235,51.542,11.793v-15.52
				C762.216,786.175,755.327,769.678,710.674,775.001z"/>
			<path style="fill:#F0A44B;" d="M710.674,843.607c0,0-1.545-7.983,23.469-12.241c25.013-4.258,28.073-10.887,28.073-10.887v15.52
				c0,0-14.768,9.203-38.183,10.268L710.674,843.607z"/>
			<path style="fill:#F4C14F;" d="M710.674,809.302v14.902c0,0,36.268-5.235,51.542,11.795v-15.52
				C762.216,820.479,755.327,803.982,710.674,809.302z"/>
			<path style="fill:#F0A44B;" d="M710.674,877.909c0,0-1.545-7.983,23.469-12.239c25.013-4.258,28.073-10.889,28.073-10.889v15.52
				c0,0-14.768,9.206-38.183,10.27L710.674,877.909z"/>
			<path style="fill:#F0A44B;" d="M762.216,904.606c0,0-1.642,10.633-20.151,6.551v-12.492c0,0,20.151,5.941,20.151-9.579V904.606z"
				/>
			<path style="fill:#F4C14F;" d="M710.674,877.909v14.901c0,0,36.268-5.235,51.542,11.796v-15.52
				C762.216,889.085,755.327,872.589,710.674,877.909z"/>
			<path style="fill:#F4C14F;" d="M710.674,843.607v14.901c0,0,36.268-5.235,51.542,11.793v-15.52
				C762.216,854.781,755.327,838.284,710.674,843.607z"/>
			<path style="fill:#F0A44B;" d="M710.674,877.909"/>
		</g>
		<g>
			<path style="fill:#942871;" d="M445.086,1109.689c-3.605-1.734-19.688-2.141-24.019,5.369c-1.316,4.051-2.368,8.146-3.167,12.258
				c0.624-2.395,8.76-14.051,23.303-8.085C442.421,1115.802,443.391,1113.015,445.086,1109.689z"/>
			<path style="fill:#942871;" d="M416.039,1149.755c-0.088,0.197-1.048-8.726,15.337-11.033
				c16.209-2.163,18.943-5.749,18.977-5.876c-0.736,3.579-1.184,7.182-1.354,10.782c-0.078-0.197-9.564,6.2-24.336,8.38
				C421.778,1151.331,418.904,1150.581,416.039,1149.755z"/>
			<path style="fill:#EB3C96;" d="M421.067,1115.024c-1.613,4.955-2.826,9.971-3.664,15.011c0.317-0.757,22.928,0.819,31.596,13.593
				c0.171-3.598,0.619-7.203,1.354-10.782C449.929,1133.31,449.276,1120.004,421.067,1115.024z"/>
			<path style="fill:#942871;" d="M422.616,1183.565c-0.014,0.207-3.805-7.851,10.933-15.332
				c14.616-7.303,16.024-11.496,16.015-11.625c0.482,3.537,1.223,7.033,2.227,10.451c-0.137-0.166-7.04,8.931-20.292,15.813
				C428.555,1183.173,425.593,1183.407,422.616,1183.565z"/>
			<path style="fill:#EB3C96;" d="M416.039,1149.755c0.131,5.033,0.628,10.036,1.481,14.972c0.049-0.789,21.939-6.74,34.271,2.331
				c-1.004-3.417-1.744-6.913-2.227-10.451C449.335,1157.144,444.307,1145.195,416.039,1149.755z"/>
			<path style="fill:#942871;" d="M439.961,1213.531c0.044,0.2-6.251-6.275,5.228-18.185c11.415-11.71,11.386-16.136,11.337-16.256
				c1.603,3.193,3.454,6.275,5.539,9.215c-0.19-0.117-3.678,10.811-13.914,21.688
				C445.456,1211.236,442.728,1212.415,439.961,1213.531z"/>
			<path style="fill:#942871;" d="M479.244,1205.363c-0.2,0.012,6.1,5.15-2.641,13.625c-3.104-1.873-6.041-3.919-8.814-6.119
				c0.322,0.051,11.035-7.279,2.865-14.578C473.296,1200.839,476.16,1203.207,479.244,1205.363z"/>
			<path style="fill:#EB3C96;" d="M439.961,1213.531c3.245,3.917,6.806,7.625,10.665,11.079
				c-0.429-0.66,12.862-18.992,28.619-19.247c-3.084-2.156-5.949-4.524-8.59-7.072
				C470.772,1198.837,459.318,1192.42,439.961,1213.531z"/>
			<path style="fill:#EB3C96;" d="M422.616,1183.565c1.754,4.687,3.844,9.255,6.266,13.662c-0.204-0.757,18.514-13.557,33.184-8.921
				c-2.085-2.94-3.936-6.022-5.539-9.215C456.477,1179.653,447.858,1170.043,422.616,1183.565z"/>
			<path style="fill:#942871;" d="M446.163,1196.547"/>
		</g>
		<g>
			<path style="fill:#3C2060;" d="M678.08,1431.984c3.113-2.509,10.378-16.867,5.452-24.002c-3.094-2.926-6.344-5.632-9.72-8.117
				c1.9,1.593,8.94,13.941-2.689,24.521C673.704,1426.953,675.804,1429.026,678.08,1431.984z"/>
			<path style="fill:#3C2060;" d="M654.343,1388.559c-0.137-0.161,8.331,2.799,3.391,18.59c-4.999,15.571-2.928,19.576-2.831,19.661
				c-2.919-2.195-5.983-4.146-9.159-5.847c0.209,0.015-1.496-11.298,2.865-25.578C650.455,1393.07,652.37,1390.795,654.343,1388.559
				z"/>
			<path style="fill:#64459B;" d="M683.566,1407.996c-3.791-3.579-7.795-6.83-11.995-9.749c0.551,0.616-10.572,20.363-25.827,22.716
				c3.177,1.7,6.241,3.651,9.159,5.847C654.664,1426.23,666.967,1431.346,683.566,1407.996z"/>
			<path style="fill:#3C2060;" d="M620.979,1380.006c-0.176-0.105,8.726-0.073,9.159,16.448c0.331,16.339,3.518,19.406,3.635,19.454
				c-3.401-1.084-6.874-1.91-10.392-2.473c0.205-0.053-5.052-10.188-5.583-25.111
				C618.786,1385.536,619.848,1382.761,620.979,1380.006z"/>
			<path style="fill:#64459B;" d="M654.343,1388.559c-4.599-2.036-9.335-3.732-14.158-5.082c0.692,0.388-3.323,22.712-16.804,29.959
				c3.518,0.563,6.992,1.388,10.392,2.473C633.388,1415.472,646.338,1416.054,654.343,1388.559z"/>
			<path style="fill:#3C2060;" d="M586.475,1382.819c-0.205-0.046,8.351-2.955,14.182,12.524
				c5.681,15.335,9.696,17.206,9.822,17.211c-3.571,0.08-7.147,0.429-10.699,1.052c0.185-0.122-8.19-7.958-13.628-21.871
				C586.187,1388.773,586.294,1385.799,586.475,1382.819z"/>
			<path style="fill:#3C2060;" d="M577.003,1421.811c0.073-0.182-7.269,3.303-11.177-8.229c3.021-1.998,6.134-3.773,9.306-5.335
				c-0.18,0.266,1.846,13.089,11.942,8.836C583.639,1418.376,580.267,1419.952,577.003,1421.811z"/>
			<path style="fill:#64459B;" d="M586.475,1382.819c-4.936,1.255-9.812,2.88-14.587,4.887c0.78-0.107,11.639,19.764,5.116,34.104
				c3.264-1.858,6.636-3.432,10.071-4.728C586.533,1416.956,597.242,1409.363,586.475,1382.819z"/>
			<path style="fill:#64459B;" d="M620.979,1380.006c-4.989-0.428-10.007-0.497-15.025-0.204c0.77,0.146,4.302,22.546-6.173,33.805
				c3.552-0.621,7.128-0.972,10.699-1.052C609.992,1412.271,622.372,1408.608,620.979,1380.006z"/>
			<path style="fill:#3C2060;" d="M599.152,1395.709"/>
		</g>
	</g>
	<g>
		<g>
			<path style="fill:#F0A44B;" d="M1684.276,919.526c-6.641,0.136-27.055,1.691-31.966,15.532v12.185
				c0.697-2.229,7.761-15.167,31.966-14.821V919.526z"/>
			<path style="fill:#F0A44B;" d="M1652.296,969.331c0,0-1.55-7.983,23.464-12.241s28.073-10.887,28.073-10.887v15.52
				c0,0-14.767,9.203-38.183,10.268L1652.296,969.331z"/>
			<path style="fill:#F4C14F;" d="M1652.296,935.027v14.902c0,0,36.263-5.235,51.537,11.795v-15.52
				C1703.833,946.204,1696.943,929.707,1652.296,935.027z"/>
			<path style="fill:#F0A44B;" d="M1652.296,1003.634c0,0-1.55-7.983,23.464-12.239c25.014-4.258,28.073-10.889,28.073-10.889v15.52
				c0,0-14.767,9.206-38.183,10.27L1652.296,1003.634z"/>
			<path style="fill:#F4C14F;" d="M1652.296,969.331v14.901c0,0,36.263-5.235,51.537,11.793v-15.52
				C1703.833,980.506,1696.943,964.009,1652.296,969.331z"/>
			<path style="fill:#F0A44B;" d="M1652.296,1037.938c0,0-1.55-7.983,23.464-12.241c25.014-4.256,28.073-10.887,28.073-10.887v15.52
				c0,0-14.767,9.203-38.183,10.268L1652.296,1037.938z"/>
			<path style="fill:#F0A44B;" d="M1703.833,1064.632c0,0-1.637,10.636-20.151,6.55v-12.49c0,0,20.151,5.939,20.151-9.581V1064.632z
				"/>
			<path style="fill:#F4C14F;" d="M1652.296,1037.938v14.901c0,0,36.263-5.235,51.537,11.793v-15.52
				C1703.833,1049.112,1696.943,1032.615,1652.296,1037.938z"/>
			<path style="fill:#F4C14F;" d="M1652.296,1003.634v14.901c0,0,36.263-5.235,51.537,11.796v-15.52
				C1703.833,1014.81,1696.943,998.313,1652.296,1003.634z"/>
			<path style="fill:#F0A44B;" d="M1652.296,1037.938"/>
		</g>
		<g>
			<path style="fill:#942871;" d="M1275.19,1152.396c-3.6-1.737-19.688-2.144-24.025,5.367c-1.315,4.051-2.368,8.146-3.162,12.258
				c0.624-2.395,8.76-14.051,23.303-8.085C1272.52,1158.506,1273.489,1155.721,1275.19,1152.396z"/>
			<path style="fill:#942871;" d="M1246.137,1192.459c-0.088,0.198-1.043-8.723,15.342-11.033
				c16.209-2.163,18.938-5.749,18.977-5.876c-0.735,3.579-1.184,7.184-1.355,10.782c-0.078-0.194-9.568,6.2-24.341,8.38
				C1251.882,1194.036,1249.007,1193.285,1246.137,1192.459z"/>
			<path style="fill:#EB3C96;" d="M1251.165,1157.728c-1.608,4.955-2.826,9.973-3.663,15.014c0.321-0.758,22.928,0.816,31.6,13.591
				c0.171-3.598,0.619-7.203,1.355-10.782C1280.033,1176.014,1279.38,1162.708,1251.165,1157.728z"/>
			<path style="fill:#942871;" d="M1252.72,1226.269c-0.019,0.207-3.805-7.849,10.933-15.332
				c14.616-7.303,16.019-11.496,16.014-11.622c0.482,3.537,1.223,7.03,2.222,10.448c-0.136-0.163-7.035,8.933-20.287,15.812
				C1258.659,1225.88,1255.696,1226.111,1252.72,1226.269z"/>
			<path style="fill:#EB3C96;" d="M1246.137,1192.459c0.137,5.033,0.634,10.037,1.481,14.972c0.058-0.789,21.944-6.738,34.27,2.331
				c-0.999-3.418-1.739-6.911-2.222-10.448C1279.438,1199.848,1274.41,1187.901,1246.137,1192.459z"/>
			<path style="fill:#942871;" d="M1270.059,1256.235c0.049,0.203-6.246-6.273,5.233-18.185
				c11.415-11.71,11.381-16.136,11.333-16.253c1.608,3.191,3.459,6.273,5.539,9.213c-0.185-0.115-3.673,10.811-13.91,21.688
				C1275.56,1253.94,1272.827,1255.119,1270.059,1256.235z"/>
			<path style="fill:#942871;" d="M1309.348,1248.069c-0.199,0.01,6.1,5.15-2.64,13.625c-3.104-1.876-6.042-3.922-8.814-6.12
				c0.317,0.049,11.036-7.281,2.86-14.578C1303.4,1243.543,1306.264,1245.913,1309.348,1248.069z"/>
			<path style="fill:#EB3C96;" d="M1270.059,1256.235c3.25,3.92,6.812,7.625,10.67,11.079c-0.429-0.66,12.862-18.991,28.619-19.245
				c-3.084-2.156-5.948-4.524-8.594-7.072C1300.876,1241.543,1289.421,1235.124,1270.059,1256.235z"/>
			<path style="fill:#EB3C96;" d="M1252.72,1226.269c1.754,4.689,3.844,9.255,6.26,13.661c-0.195-0.758,18.524-13.557,33.184-8.921
				c-2.08-2.941-3.932-6.022-5.539-9.213C1286.581,1222.357,1277.962,1212.746,1252.72,1226.269z"/>
			<path style="fill:#942871;" d="M1276.267,1239.253"/>
		</g>
		<g>
			<path style="fill:#3C2060;" d="M1437.606,1692.227c3.113-2.511,10.382-16.867,5.452-24.005c-3.094-2.924-6.344-5.63-9.715-8.115
				c1.895,1.593,8.935,13.941-2.69,24.521C1433.231,1687.197,1435.331,1689.27,1437.606,1692.227z"/>
			<path style="fill:#3C2060;" d="M1413.874,1648.802c-0.146-0.161,8.331,2.799,3.382,18.59
				c-4.994,15.569-2.924,19.573-2.826,19.661c-2.918-2.198-5.983-4.146-9.159-5.847c0.214,0.014-1.501-11.298,2.87-25.579
				C1409.986,1653.314,1411.896,1651.038,1413.874,1648.802z"/>
			<path style="fill:#64459B;" d="M1443.092,1668.24c-3.786-3.579-7.8-6.831-11.991-9.749c0.546,0.616-10.572,20.363-25.832,22.716
				c3.177,1.7,6.241,3.649,9.159,5.847C1414.196,1686.473,1426.493,1691.589,1443.092,1668.24z"/>
			<path style="fill:#3C2060;" d="M1380.505,1640.246c-0.18-0.102,8.726-0.07,9.165,16.451c0.331,16.339,3.513,19.405,3.635,19.454
				c-3.401-1.084-6.879-1.91-10.397-2.473c0.21-0.053-5.047-10.188-5.584-25.111
				C1378.313,1645.779,1379.375,1643.005,1380.505,1640.246z"/>
			<path style="fill:#64459B;" d="M1413.874,1648.802c-4.604-2.039-9.34-3.735-14.163-5.082c0.692,0.385-3.318,22.709-16.804,29.958
				c3.518,0.563,6.996,1.389,10.397,2.473C1392.914,1675.715,1405.865,1676.295,1413.874,1648.802z"/>
			<path style="fill:#3C2060;" d="M1346.001,1643.063c-0.2-0.047,8.346-2.958,14.183,12.523c5.681,15.335,9.696,17.204,9.822,17.211
				c-3.572,0.08-7.148,0.428-10.699,1.052c0.185-0.122-8.185-7.958-13.622-21.871
				C1345.714,1649.017,1345.821,1646.042,1346.001,1643.063z"/>
			<path style="fill:#3C2060;" d="M1336.525,1682.054c0.078-0.183-7.264,3.301-11.171-8.229c3.025-1.998,6.134-3.776,9.306-5.335
				c-0.18,0.266,1.846,13.089,11.941,8.836C1343.166,1678.619,1339.799,1680.193,1336.525,1682.054z"/>
			<path style="fill:#64459B;" d="M1346.001,1643.063c-4.935,1.252-9.807,2.879-14.587,4.887
				c0.784-0.107,11.639,19.764,5.111,34.104c3.274-1.858,6.641-3.435,10.075-4.728
				C1346.059,1677.199,1356.768,1669.604,1346.001,1643.063z"/>
			<path style="fill:#64459B;" d="M1380.505,1640.246c-4.984-0.426-10.007-0.497-15.026-0.202c0.77,0.144,4.302,22.543-6.173,33.805
				c3.552-0.624,7.128-0.972,10.699-1.052C1369.519,1672.515,1381.898,1668.851,1380.505,1640.246z"/>
			<path style="fill:#3C2060;" d="M1358.683,1655.949"/>
		</g>
	</g>
	<g>
		<g>
			<path style="fill:#F0A44B;" d="M1090.888,1213.178c-3.357-1.467-13.934-5.406-19.591,0.39l-2.816,6.102
				c0.867-0.955,7.391-5.802,19.43-0.034L1090.888,1213.178z"/>
			<path style="fill:#F0A44B;" d="M1063.37,1230.722c0,0,1.072-4.353,14.578-0.704c13.505,3.646,16.57,1.035,16.57,1.035
				l-3.586,7.768c0,0-9.521,1.196-21.486-3.681L1063.37,1230.722z"/>
			<path style="fill:#F4C14F;" d="M1071.297,1213.548l-3.444,7.462c0,0,19.366,5.759,23.079,17.812l3.586-7.768
				C1094.518,1231.054,1094.878,1221.2,1071.297,1213.548z"/>
			<path style="fill:#F0A44B;" d="M1055.444,1247.897c0,0,1.072-4.353,14.577-0.704c13.506,3.647,16.57,1.036,16.57,1.036
				l-3.586,7.768c0,0-9.52,1.196-21.491-3.681L1055.444,1247.897z"/>
			<path style="fill:#F4C14F;" d="M1063.37,1230.722l-3.444,7.462c0,0,19.366,5.759,23.079,17.812l3.586-7.768
				C1086.591,1248.228,1086.951,1238.374,1063.37,1230.722z"/>
			<path style="fill:#F0A44B;" d="M1047.517,1265.07c0,0,1.072-4.353,14.577-0.704c13.51,3.647,16.57,1.035,16.57,1.035
				l-3.586,7.769c0,0-9.52,1.196-21.486-3.681L1047.517,1265.07z"/>
			<path style="fill:#F0A44B;" d="M1067.156,1290.345c0,0-3.284,4.945-11.605-1.377l2.889-6.253c0,0,8.716,7.63,12.302-0.139
				L1067.156,1290.345z"/>
			<path style="fill:#F4C14F;" d="M1047.517,1265.07l-3.444,7.462c0,0,19.366,5.757,23.084,17.813l3.586-7.769
				C1070.742,1282.576,1071.102,1272.724,1047.517,1265.07z"/>
			<path style="fill:#F4C14F;" d="M1055.444,1247.897l-3.44,7.462c0,0,19.362,5.756,23.074,17.812l3.586-7.769
				C1078.664,1265.402,1079.029,1255.55,1055.444,1247.897z"/>
			<path style="fill:#F0A44B;" d="M1047.517,1265.07"/>
		</g>
		<g>
			<path style="fill:#942871;" d="M1020.276,993.824c-3.6-1.737-19.688-2.144-24.019,5.369c-1.316,4.051-2.368,8.144-3.167,12.258
				c0.629-2.395,8.76-14.054,23.308-8.088C1017.612,999.933,1018.581,997.149,1020.276,993.824z"/>
			<path style="fill:#942871;" d="M991.229,1033.887c-0.088,0.197-1.048-8.724,15.337-11.031
				c16.209-2.166,18.943-5.751,18.977-5.878c-0.731,3.579-1.184,7.184-1.355,10.782c-0.078-0.194-9.564,6.2-24.336,8.38
				C996.969,1035.466,994.094,1034.713,991.229,1033.887z"/>
			<path style="fill:#EB3C96;" d="M996.257,999.156c-1.613,4.955-2.831,9.974-3.664,15.013c0.317-0.757,22.928,0.816,31.596,13.591
				c0.171-3.598,0.624-7.203,1.355-10.782C1025.119,1017.444,1024.467,1004.138,996.257,999.156z"/>
			<path style="fill:#942871;" d="M997.806,1067.697c-0.015,0.207-3.805-7.849,10.933-15.33
				c14.616-7.306,16.025-11.498,16.015-11.625c0.482,3.537,1.223,7.031,2.227,10.451c-0.137-0.166-7.04,8.931-20.292,15.81
				C1003.746,1067.307,1000.788,1067.539,997.806,1067.697z"/>
			<path style="fill:#EB3C96;" d="M991.229,1033.887c0.131,5.035,0.629,10.036,1.481,14.972c0.048-0.789,21.939-6.738,34.27,2.334
				c-1.004-3.42-1.744-6.913-2.227-10.451C1024.525,1041.275,1019.497,1029.329,991.229,1033.887z"/>
			<path style="fill:#942871;" d="M1015.151,1097.663c0.044,0.202-6.251-6.273,5.228-18.186
				c11.42-11.707,11.387-16.136,11.338-16.253c1.603,3.194,3.454,6.273,5.54,9.213c-0.19-0.114-3.678,10.811-13.915,21.688
				C1020.652,1095.368,1017.919,1096.547,1015.151,1097.663z"/>
			<path style="fill:#942871;" d="M1054.435,1089.497c-0.195,0.01,6.1,5.15-2.641,13.625c-3.103-1.876-6.036-3.922-8.814-6.12
				c0.322,0.049,11.035-7.281,2.865-14.577C1048.486,1084.973,1051.356,1087.341,1054.435,1089.497z"/>
			<path style="fill:#EB3C96;" d="M1015.151,1097.663c3.25,3.919,6.807,7.625,10.67,11.079c-0.434-0.66,12.862-18.989,28.614-19.245
				c-3.079-2.156-5.949-4.524-8.59-7.071C1045.963,1082.971,1034.508,1076.552,1015.151,1097.663z"/>
			<path style="fill:#EB3C96;" d="M997.806,1067.697c1.754,4.69,3.844,9.257,6.266,13.661c-0.2-0.755,18.519-13.557,33.184-8.921
				c-2.085-2.94-3.937-6.019-5.54-9.213C1031.667,1063.784,1023.054,1054.175,997.806,1067.697z"/>
			<path style="fill:#942871;" d="M1021.354,1080.681"/>
		</g>
		<g>
			<path style="fill:#3C2060;" d="M1089.168,1403.187c-0.565-3.958-9.184-17.544-17.837-16.962
				c-4.097,1.164-8.083,2.568-11.941,4.197c2.338-0.816,16.551-0.55,19.693,14.855
				C1082.61,1404.376,1085.461,1403.631,1089.168,1403.187z"/>
			<path style="fill:#3C2060;" d="M1039.716,1401.368c-0.214,0.039,6.665-5.725,17.706,6.602
				c10.821,12.256,15.318,12.526,15.445,12.487c-3.382,1.384-6.626,3.018-9.71,4.879c0.122-0.173-10.471-4.495-20.512-15.549
				C1041.602,1407.017,1040.623,1404.21,1039.716,1401.368z"/>
			<path style="fill:#64459B;" d="M1071.366,1386.206c-5.018,1.42-9.861,3.203-14.514,5.315c0.809-0.156,12.093,19.501,6.305,33.815
				c3.084-1.859,6.328-3.496,9.71-4.879C1072.247,1420.364,1082.937,1412.412,1071.366,1386.206z"/>
			<path style="fill:#3C2060;" d="M1015.292,1425.662c-0.18,0.1,4.404-7.535,18.826,0.541c14.202,8.076,18.47,6.909,18.572,6.83
				c-2.67,2.368-5.16,4.933-7.44,7.667c0.058-0.204-11.342-0.872-24.434-8.049
				C1018.927,1430.376,1017.086,1428.045,1015.292,1425.662z"/>
			<path style="fill:#64459B;" d="M1039.716,1401.368c-4.112,2.914-7.985,6.115-11.615,9.568c0.687-0.397,17.817,14.47,17.15,29.764
				c2.28-2.734,4.77-5.298,7.44-7.667C1052.121,1433.141,1059.244,1422.313,1039.716,1401.368z"/>
			<path style="fill:#3C2060;" d="M1000.062,1456.751c-0.141,0.148,1.73-8.685,18.017-5.781c16.083,2.962,19.742,0.47,19.815,0.363
				c-1.759,3.111-3.294,6.363-4.57,9.732c-0.01-0.222-11.031,2.964-25.764,0.521
				C1005.032,1460.042,1002.532,1458.43,1000.062,1456.751z"/>
			<path style="fill:#3C2060;" d="M1028.72,1484.836c-0.122-0.158-0.882,7.935-12.789,5.394c-0.166-3.62-0.107-7.201,0.176-10.728
				c0.136,0.292,12.195,5.111,13.705-5.74C1029.163,1477.375,1028.793,1481.075,1028.72,1484.836z"/>
			<path style="fill:#64459B;" d="M1000.062,1456.751c-1.447,4.879-2.543,9.902-3.259,15.032
				c0.302-0.728,22.932,0.107,31.917,13.052c0.073-3.761,0.444-7.462,1.092-11.074
				C1029.421,1474.164,1028.379,1461.075,1000.062,1456.751z"/>
			<path style="fill:#64459B;" d="M1015.292,1425.662c-2.918,4.065-5.549,8.344-7.859,12.806
				c0.516-0.587,21.574,7.834,25.891,22.597c1.276-3.369,2.811-6.621,4.57-9.732
				C1037.397,1451.606,1040.584,1439.097,1015.292,1425.662z"/>
			<path style="fill:#3C2060;" d="M1017.621,1452.447"/>
		</g>
	</g>
	<g>
		<path style="fill:#F6DD7F;" d="M633.305,1185.356c-5.549-3.284-11.469-6.787-17.384-10.292
			c-5.963-3.417-11.932-6.835-17.53-10.039c-1.218-0.701-2.416-1.378-3.61-2.046l63.186,6.538l-59.498-17.686
			c0.624-0.041,1.237-0.083,1.871-0.132c5.374-0.414,11.104-0.853,16.838-1.294c5.72-0.541,11.444-1.079,16.809-1.583
			c5.369-0.497,10.363-1.133,14.65-1.591c8.57-0.999,14.261-1.844,14.261-1.844s-5.754,0.136-14.368,0.607
			c-4.302,0.277-9.33,0.499-14.709,0.921c-5.369,0.414-11.099,0.855-16.833,1.296c-5.725,0.538-11.445,1.079-16.814,1.586
			c-1.389,0.129-2.748,0.268-4.083,0.412l52.244-35.306l-56.161,27.089c0.877-1.157,1.759-2.324,2.651-3.527
			c4.258-5.715,8.799-11.81,13.345-17.908c4.463-6.153,8.926-12.309,13.111-18.078c4.19-5.764,7.961-11.25,11.264-15.898
			c6.539-9.345,10.758-15.681,10.758-15.681s-4.789,5.917-11.757,14.948c-3.45,4.541-7.561,9.776-11.81,15.498
			c-4.259,5.715-8.799,11.81-13.34,17.908c-4.463,6.156-8.925,12.309-13.111,18.08c-1.549,2.134-3.021,4.207-4.453,6.236
			c-0.039-0.036-0.073-0.066-0.112-0.1l17.135-64.214l-24.847,55.912c0.37-5.749,0.76-11.81,1.154-17.895
			c0.322-6.465,0.638-12.931,0.935-18.991c0.307-6.061,0.424-11.727,0.609-16.578c0.282-9.71,0.297-16.192,0.297-16.192
			s-0.721,6.441-1.54,16.12c-0.366,4.843-0.892,10.485-1.277,16.541c-0.39,6.056-0.804,12.516-1.223,18.977
			c-0.317,6.465-0.634,12.928-0.935,18.992c-0.044,0.872-0.073,1.72-0.112,2.575c-0.716-0.097-1.437-0.163-2.178-0.173
			l-26.344-59.286l13.861,55.922c-0.506-0.655-1.003-1.301-1.52-1.966c-4.044-5.17-8.351-10.685-12.663-16.198
			c-4.39-5.449-8.775-10.904-12.887-16.015c-4.107-5.116-8.078-9.783-11.41-13.839c-6.734-8.058-11.362-13.32-11.362-13.32
			s4.073,5.705,10.387,14.093c3.197,4.168,6.836,9.096,10.885,14.256c4.039,5.169,8.351,10.682,12.663,16.195
			c4.385,5.452,8.775,10.904,12.892,16.014c1.374,1.715,2.724,3.36,4.054,4.968l0.658,2.65c-0.015,0.007-0.025,0.014-0.034,0.024
			l-58.007-27.138l50.324,36.646c-4.95-0.594-10.085-1.21-15.274-1.834c-6.066-0.629-12.136-1.257-17.827-1.846
			c-5.69-0.6-11.02-0.984-15.581-1.403c-9.125-0.753-15.225-1.077-15.225-1.077s6.022,1.03,15.089,2.312
			c4.541,0.597,9.822,1.398,15.503,2.07c5.681,0.68,11.742,1.408,17.798,2.134c4.984,0.517,9.915,1.026,14.689,1.52l-59.128,16.093
			l56.687-1.81c-1.759,0.899-3.542,1.818-5.369,2.777c-6.31,3.313-13.038,6.842-19.771,10.373
			c-6.68,3.619-13.369,7.239-19.635,10.633c-6.27,3.384-12.039,6.694-17.028,9.457c-9.939,5.598-16.477,9.484-16.477,9.484
			s6.874-3.262,17.062-8.39c5.072-2.602,11.04-5.545,17.345-8.865c6.305-3.311,13.038-6.843,19.771-10.373
			c6.684-3.62,13.369-7.238,19.634-10.634c2.592-1.398,5.067-2.774,7.469-4.115l-31.956,49.491l42.505-42.365
			c-2.846,5.666-6.012,11.988-9.398,18.731c-3.946,8.039-8.156,16.613-12.37,25.186c-4.117,8.619-8.239,17.238-12.102,25.315
			c-3.873,8.076-7.328,15.688-10.368,22.175c-6.012,13.011-9.861,21.762-9.861,21.762s4.487-8.441,10.972-21.221
			c3.206-6.406,7.041-13.839,10.982-21.88c3.941-8.039,8.156-16.614,12.36-25.189c4.122-8.617,8.244-17.235,12.107-25.315
			c3.235-6.919,6.266-13.396,8.974-19.191l8.312,60.959l4.712-61.644c0.721,2.368,1.452,4.777,2.197,7.242
			c2.855,9.145,5.905,18.899,8.945,28.656c3.143,9.722,6.285,19.449,9.228,28.565c3.021,9.094,5.837,17.581,8.248,24.857
			c4.892,14.528,8.327,24.161,8.327,24.161s-2.758-9.847-7.143-24.536c-2.227-7.335-4.823-15.893-7.61-25.062
			c-2.855-9.145-5.9-18.899-8.945-28.653c-3.143-9.725-6.285-19.449-9.228-28.565c-0.823-2.487-1.632-4.916-2.421-7.299
			l45.803,43.311l-37.754-53.8c0.005-0.015,0.015-0.025,0.02-0.034c1.603,0.972,3.24,1.961,4.931,2.962
			c5.549,3.286,11.464,6.792,17.379,10.292c5.968,3.42,11.936,6.838,17.529,10.042c5.588,3.213,10.894,6.063,15.396,8.58
			c9.047,4.962,15.162,8.117,15.162,8.117s-5.759-3.768-14.538-9.191C643.946,1191.84,638.854,1188.632,633.305,1185.356z"/>
		<polygon style="fill:#F6DD7F;" points="632.19,1252.415 626.601,1255.353 621.013,1252.415 622.08,1258.64 617.558,1263.046 
			623.805,1263.955 626.601,1269.616 629.393,1263.955 635.643,1263.046 631.122,1258.64 		"/>
		<polygon style="fill:#F6DD7F;" points="660.107,1094.693 662.903,1100.357 665.695,1094.693 671.946,1093.784 667.425,1089.378 
			668.491,1083.154 662.903,1086.094 657.315,1083.154 658.382,1089.378 653.86,1093.784 		"/>
		<polygon style="fill:#F6DD7F;" points="511.849,1265.426 512.915,1259.202 507.322,1262.142 501.734,1259.202 502.806,1265.426 
			498.279,1269.833 504.531,1270.742 507.322,1276.405 510.119,1270.742 516.37,1269.833 		"/>
		<polygon style="fill:#F6DD7F;" points="610.455,1070.372 612.297,1074.111 614.143,1070.372 618.27,1069.772 615.283,1066.861 
			615.99,1062.749 612.297,1064.691 608.603,1062.749 609.31,1066.861 606.323,1069.772 		"/>
		<polygon style="fill:#F6DD7F;" points="530.699,1076.052 532.54,1079.792 534.387,1076.052 538.514,1075.453 535.527,1072.542 
			536.234,1068.43 532.54,1070.372 528.852,1068.43 529.559,1072.542 526.567,1075.453 		"/>
		<polygon style="fill:#F6DD7F;" points="476.725,1141.078 477.427,1136.966 473.734,1138.908 470.046,1136.966 470.753,1141.078 
			467.761,1143.989 471.892,1144.588 473.734,1148.328 475.585,1144.588 479.707,1143.989 		"/>
		<polygon style="fill:#F6DD7F;" points="667.945,1189.382 664.813,1191.032 661.68,1189.382 662.274,1192.874 659.741,1195.346 
			663.244,1195.858 664.813,1199.034 666.382,1195.858 669.885,1195.346 667.351,1192.874 		"/>
		<polygon style="fill:#F6DD7F;" points="613.797,1242.988 615.371,1246.164 616.935,1242.988 620.443,1242.479 617.904,1240.006 
			618.504,1236.513 615.371,1238.162 612.233,1236.513 612.833,1240.006 610.289,1242.479 		"/>
		<polygon style="fill:#F6DD7F;" points="484.346,1195.858 485.909,1199.034 487.473,1195.858 490.981,1195.346 488.448,1192.874 
			489.042,1189.382 485.909,1191.032 482.772,1189.382 483.371,1192.874 480.837,1195.346 		"/>
		<polygon style="fill:#F6DD7F;" points="537.617,1088.579 534.479,1086.929 535.079,1090.42 532.54,1092.893 536.048,1093.405 
			537.617,1096.581 539.186,1093.405 542.689,1092.893 540.151,1090.42 540.755,1086.929 		"/>
	</g>
	<g>
		<path style="fill:#F6DD7F;" d="M1668.105,1272.715c-5.549-3.284-11.464-6.787-17.379-10.292
			c-5.968-3.418-11.936-6.835-17.529-10.039c-1.218-0.702-2.422-1.379-3.611-2.046l63.187,6.539l-59.498-17.686
			c0.624-0.041,1.233-0.083,1.871-0.131c5.369-0.414,11.104-0.853,16.833-1.294c5.725-0.541,11.445-1.079,16.813-1.584
			c5.369-0.497,10.358-1.132,14.646-1.59c8.57-0.999,14.265-1.844,14.265-1.844s-5.754,0.137-14.372,0.609
			c-4.297,0.276-9.33,0.497-14.704,0.919c-5.369,0.414-11.104,0.855-16.833,1.296c-5.725,0.538-11.449,1.079-16.813,1.586
			c-1.389,0.129-2.748,0.27-4.083,0.412l52.244-35.305l-56.161,27.089c0.872-1.157,1.754-2.324,2.65-3.528
			c4.258-5.715,8.799-11.809,13.345-17.907c4.463-6.153,8.921-12.309,13.106-18.078c4.19-5.764,7.961-11.247,11.269-15.896
			c6.538-9.347,10.757-15.683,10.757-15.683s-4.794,5.917-11.761,14.948c-3.449,4.541-7.557,9.776-11.805,15.498
			c-4.258,5.715-8.804,11.81-13.345,17.908c-4.463,6.156-8.926,12.309-13.106,18.08c-1.549,2.134-3.02,4.207-4.458,6.236
			c-0.034-0.036-0.073-0.066-0.107-0.1l17.13-64.214l-24.843,55.912c0.37-5.749,0.76-11.81,1.154-17.895
			c0.317-6.465,0.639-12.931,0.931-18.992c0.312-6.061,0.429-11.727,0.609-16.577c0.287-9.71,0.297-16.193,0.297-16.193
			s-0.716,6.441-1.535,16.119c-0.366,4.843-0.896,10.485-1.277,16.541c-0.39,6.056-0.809,12.516-1.223,18.977
			c-0.322,6.465-0.638,12.928-0.935,18.991c-0.044,0.875-0.078,1.72-0.112,2.577c-0.716-0.1-1.442-0.166-2.178-0.175l-26.348-59.286
			l13.866,55.922c-0.507-0.656-1.004-1.301-1.525-1.966c-4.039-5.169-8.351-10.682-12.663-16.195
			c-4.385-5.452-8.77-10.906-12.887-16.017c-4.107-5.116-8.073-9.783-11.405-13.84c-6.733-8.058-11.362-13.32-11.362-13.32
			s4.073,5.705,10.388,14.093c3.191,4.168,6.83,9.096,10.879,14.256c4.044,5.17,8.356,10.682,12.663,16.195
			c4.39,5.452,8.78,10.904,12.892,16.015c1.379,1.715,2.729,3.362,4.058,4.97l0.653,2.648c-0.01,0.007-0.019,0.014-0.034,0.024
			l-58.007-27.137l50.329,36.645c-4.95-0.594-10.09-1.211-15.274-1.832c-6.071-0.631-12.136-1.259-17.832-1.849
			c-5.686-0.599-11.016-0.984-15.576-1.403c-9.125-0.753-15.23-1.077-15.23-1.077s6.027,1.031,15.094,2.312
			c4.54,0.597,9.822,1.398,15.503,2.071c5.681,0.68,11.737,1.408,17.798,2.134c4.984,0.516,9.915,1.026,14.689,1.52l-59.128,16.093
			l56.687-1.81c-1.759,0.899-3.542,1.817-5.369,2.779c-6.31,3.311-13.043,6.84-19.771,10.373
			c-6.685,3.618-13.369,7.238-19.635,10.631c-6.275,3.384-12.044,6.694-17.033,9.457c-9.934,5.598-16.473,9.486-16.473,9.486
			s6.87-3.264,17.057-8.392c5.072-2.599,11.04-5.544,17.349-8.865c6.305-3.311,13.038-6.843,19.766-10.373
			c6.685-3.62,13.374-7.238,19.635-10.631c2.592-1.401,5.072-2.777,7.469-4.117l-31.951,49.491l42.5-42.365
			c-2.84,5.667-6.012,11.988-9.393,18.731c-3.951,8.039-8.161,16.614-12.37,25.189c-4.122,8.617-8.243,17.235-12.102,25.313
			c-3.873,8.075-7.327,15.688-10.373,22.175c-6.007,13.011-9.856,21.761-9.856,21.761s4.483-8.441,10.972-21.22
			c3.206-6.407,7.041-13.839,10.977-21.88c3.947-8.039,8.156-16.614,12.366-25.189c4.121-8.616,8.243-17.235,12.107-25.315
			c3.235-6.918,6.261-13.396,8.974-19.191l8.312,60.96l4.711-61.642c0.716,2.365,1.447,4.775,2.197,7.24
			c2.855,9.145,5.9,18.899,8.945,28.655c3.143,9.723,6.285,19.45,9.228,28.565c3.016,9.094,5.832,17.581,8.243,24.857
			c4.892,14.529,8.327,24.161,8.327,24.161s-2.753-9.846-7.138-24.536c-2.231-7.335-4.828-15.892-7.61-25.059
			c-2.855-9.145-5.905-18.899-8.945-28.656c-3.143-9.725-6.285-19.449-9.228-28.565c-0.829-2.488-1.632-4.916-2.422-7.298
			l45.803,43.31l-37.754-53.8c0.005-0.014,0.01-0.024,0.014-0.034c1.603,0.974,3.24,1.961,4.936,2.964
			c5.549,3.284,11.464,6.79,17.379,10.292c5.969,3.418,11.932,6.835,17.53,10.039c5.589,3.213,10.894,6.064,15.396,8.58
			c9.043,4.962,15.162,8.117,15.162,8.117s-5.759-3.769-14.538-9.189C1678.751,1279.2,1673.66,1275.991,1668.105,1272.715z"/>
		<polygon style="fill:#F6DD7F;" points="1666.995,1339.775 1661.406,1342.712 1655.813,1339.775 1656.885,1345.998 
			1652.364,1350.405 1658.61,1351.314 1661.406,1356.975 1664.198,1351.314 1670.449,1350.405 1665.927,1345.998 		"/>
		<polygon style="fill:#F6DD7F;" points="1694.912,1182.052 1697.703,1187.716 1700.5,1182.052 1706.751,1181.144 
			1702.225,1176.737 1703.296,1170.513 1697.703,1173.453 1692.115,1170.513 1693.182,1176.737 1688.661,1181.144 		"/>
		<polygon style="fill:#F6DD7F;" points="1546.649,1352.786 1547.72,1346.561 1542.128,1349.502 1536.539,1346.561 
			1537.606,1352.786 1533.085,1357.192 1539.331,1358.101 1542.128,1363.765 1544.924,1358.101 1551.17,1357.192 		"/>
		<polygon style="fill:#F6DD7F;" points="1645.255,1157.731 1647.102,1161.473 1648.948,1157.731 1653.075,1157.132 
			1650.083,1154.221 1650.795,1150.109 1647.102,1152.05 1643.408,1150.109 1644.115,1154.221 1641.129,1157.132 		"/>
		<polygon style="fill:#F6DD7F;" points="1565.499,1163.412 1567.345,1167.151 1569.192,1163.412 1573.319,1162.813 
			1570.332,1159.901 1571.039,1155.789 1567.345,1157.731 1563.652,1155.789 1564.359,1159.901 1561.372,1162.813 		"/>
		<polygon style="fill:#F6DD7F;" points="1511.526,1228.437 1512.232,1224.325 1508.539,1226.267 1504.846,1224.325 
			1505.553,1228.437 1502.566,1231.349 1506.698,1231.948 1508.539,1235.687 1510.385,1231.948 1514.512,1231.349 		"/>
		<polygon style="fill:#F6DD7F;" points="1702.751,1276.742 1699.614,1278.391 1696.48,1276.742 1697.079,1280.233 
			1694.542,1282.705 1698.049,1283.216 1699.614,1286.393 1701.182,1283.216 1704.69,1282.705 1702.151,1280.233 		"/>
		<polygon style="fill:#F6DD7F;" points="1648.602,1330.347 1650.171,1333.523 1651.74,1330.347 1655.248,1329.838 
			1652.71,1327.365 1653.309,1323.872 1650.171,1325.521 1647.034,1323.872 1647.638,1327.365 1645.094,1329.838 		"/>
		<polygon style="fill:#F6DD7F;" points="1519.146,1283.216 1520.715,1286.393 1522.278,1283.216 1525.787,1282.705 
			1523.248,1280.233 1523.847,1276.742 1520.715,1278.391 1517.577,1276.742 1518.176,1280.233 1515.643,1282.705 		"/>
		<polygon style="fill:#F6DD7F;" points="1572.422,1175.938 1569.285,1174.289 1569.884,1177.78 1567.345,1180.252 
			1570.854,1180.764 1572.422,1183.94 1573.986,1180.764 1577.494,1180.252 1574.955,1177.78 1575.555,1174.289 		"/>
	</g>
	<g>
		<path style="fill:#F6DD7F;" d="M1031.644,555.936c-5.549-3.286-11.464-6.79-17.379-10.292c-5.968-3.418-11.937-6.835-17.53-10.041
			c-1.223-0.699-2.422-1.376-3.615-2.044l63.186,6.539l-59.498-17.686c0.629-0.043,1.238-0.083,1.871-0.131
			c5.374-0.414,11.104-0.853,16.838-1.294c5.725-0.541,11.445-1.079,16.814-1.584c5.364-0.497,10.358-1.133,14.645-1.591
			c8.565-1.001,14.266-1.844,14.266-1.844s-5.759,0.137-14.373,0.607c-4.302,0.278-9.33,0.5-14.704,0.921
			c-5.374,0.414-11.104,0.855-16.838,1.294c-5.72,0.541-11.445,1.082-16.809,1.588c-1.388,0.129-2.753,0.268-4.087,0.41
			l52.248-35.303l-56.165,27.089c0.877-1.157,1.759-2.326,2.651-3.528c4.258-5.715,8.804-11.812,13.345-17.907
			c4.463-6.154,8.925-12.31,13.106-18.08c4.195-5.764,7.966-11.247,11.269-15.896c6.539-9.345,10.758-15.681,10.758-15.681
			s-4.79,5.914-11.757,14.945c-3.449,4.543-7.556,9.778-11.81,15.498c-4.258,5.717-8.799,11.813-13.34,17.908
			c-4.463,6.158-8.926,12.311-13.106,18.083c-1.55,2.134-3.026,4.205-4.458,6.234c-0.034-0.034-0.073-0.063-0.112-0.1l17.135-64.214
			l-24.848,55.912c0.371-5.746,0.765-11.808,1.155-17.893c0.321-6.465,0.643-12.933,0.935-18.994
			c0.312-6.059,0.424-11.727,0.609-16.578c0.287-9.71,0.297-16.192,0.297-16.192s-0.721,6.443-1.54,16.121
			c-0.365,4.841-0.891,10.485-1.276,16.541c-0.39,6.056-0.809,12.514-1.223,18.974c-0.317,6.465-0.634,12.93-0.931,18.991
			c-0.044,0.875-0.078,1.72-0.117,2.577c-0.711-0.097-1.442-0.166-2.178-0.175l-26.344-59.286l13.861,55.922
			c-0.506-0.653-1.004-1.299-1.525-1.964c-4.034-5.172-8.346-10.685-12.658-16.197c-4.385-5.452-8.774-10.904-12.887-16.014
			c-4.107-5.116-8.078-9.784-11.41-13.84c-6.728-8.058-11.357-13.32-11.357-13.32s4.068,5.703,10.387,14.092
			c3.187,4.168,6.831,9.094,10.88,14.256c4.039,5.17,8.351,10.682,12.662,16.195c4.385,5.452,8.78,10.904,12.892,16.012
			c1.379,1.718,2.728,3.362,4.054,4.97l0.658,2.648c-0.01,0.009-0.024,0.017-0.034,0.024l-58.007-27.135l50.324,36.645
			c-4.945-0.594-10.085-1.213-15.274-1.834c-6.066-0.628-12.137-1.257-17.827-1.846c-5.69-0.599-11.016-0.984-15.576-1.403
			c-9.126-0.753-15.23-1.077-15.23-1.077s6.027,1.031,15.094,2.312c4.536,0.597,9.817,1.398,15.498,2.071
			c5.681,0.68,11.742,1.405,17.797,2.131c4.989,0.516,9.92,1.028,14.694,1.52l-59.128,16.095l56.682-1.813
			c-1.754,0.901-3.537,1.82-5.369,2.779c-6.309,3.311-13.037,6.843-19.771,10.373c-6.685,3.62-13.369,7.24-19.635,10.631
			c-6.27,3.384-12.044,6.697-17.033,9.457c-9.934,5.598-16.472,9.486-16.472,9.486s6.874-3.262,17.062-8.39
			c5.072-2.602,11.04-5.544,17.345-8.865c6.309-3.311,13.037-6.843,19.771-10.375c6.684-3.62,13.369-7.238,19.634-10.631
			c2.587-1.398,5.067-2.774,7.469-4.114l-31.956,49.491l42.504-42.365c-2.84,5.667-6.017,11.986-9.398,18.731
			c-3.946,8.039-8.156,16.614-12.365,25.187c-4.121,8.619-8.243,17.237-12.107,25.315c-3.874,8.075-7.328,15.688-10.368,22.173
			c-6.012,13.011-9.856,21.764-9.856,21.764s4.482-8.441,10.972-21.22c3.206-6.409,7.035-13.839,10.972-21.883
			c3.946-8.037,8.156-16.614,12.37-25.189c4.117-8.616,8.239-17.235,12.102-25.313c3.235-6.918,6.265-13.396,8.974-19.191
			l8.312,60.96l4.712-61.644c0.721,2.365,1.452,4.777,2.197,7.242c2.86,9.145,5.905,18.899,8.95,28.655
			c3.143,9.723,6.28,19.447,9.223,28.565c3.016,9.094,5.832,17.581,8.248,24.857c4.891,14.529,8.321,24.161,8.321,24.161
			s-2.752-9.846-7.137-24.538c-2.227-7.335-4.828-15.891-7.605-25.06c-2.855-9.145-5.905-18.899-8.95-28.655
			c-3.143-9.723-6.28-19.447-9.228-28.565c-0.823-2.485-1.627-4.914-2.421-7.296l45.807,43.31l-37.759-53.803
			c0.005-0.012,0.01-0.022,0.02-0.034c1.602,0.974,3.235,1.964,4.93,2.964c5.549,3.286,11.464,6.79,17.384,10.292
			c5.963,3.418,11.932,6.838,17.525,10.041c5.588,3.213,10.894,6.061,15.396,8.58c9.048,4.962,15.167,8.117,15.167,8.117
			s-5.764-3.769-14.544-9.191C1042.289,562.421,1037.193,559.213,1031.644,555.936z"/>
		<polygon style="fill:#F6DD7F;" points="1030.527,622.993 1024.939,625.933 1019.351,622.993 1020.418,629.217 1015.897,633.627 
			1022.147,634.536 1024.939,640.197 1027.736,634.536 1033.987,633.627 1029.461,629.217 		"/>
		<polygon style="fill:#F6DD7F;" points="1058.444,465.274 1061.241,470.935 1064.033,465.274 1070.284,464.365 1065.762,459.958 
			1066.835,453.734 1061.241,456.672 1055.653,453.734 1056.72,459.958 1052.199,464.365 		"/>
		<polygon style="fill:#F6DD7F;" points="910.186,636.007 911.254,629.782 905.665,632.721 900.077,629.782 901.144,636.007 
			896.623,640.414 902.869,641.322 905.665,646.984 908.457,641.322 914.708,640.414 		"/>
		<polygon style="fill:#F6DD7F;" points="1008.788,440.952 1010.635,444.691 1012.481,440.952 1016.608,440.353 1013.622,437.439 
			1014.328,433.33 1010.635,435.271 1006.947,433.33 1007.648,437.439 1004.662,440.353 		"/>
		<polygon style="fill:#F6DD7F;" points="929.037,446.633 930.883,450.372 932.725,446.633 936.856,446.034 933.87,443.12 
			934.576,439.01 930.883,440.952 927.19,439.01 927.892,443.12 924.91,446.034 		"/>
		<polygon style="fill:#F6DD7F;" points="875.064,511.659 875.77,507.547 872.077,509.488 868.384,507.547 869.09,511.659 
			866.104,514.567 870.23,515.169 872.077,518.908 873.919,515.169 878.05,514.567 		"/>
		<polygon style="fill:#F6DD7F;" points="1066.289,559.961 1063.151,561.61 1060.019,559.961 1060.613,563.454 1058.079,565.926 
			1061.582,566.436 1063.151,569.612 1064.72,566.436 1068.228,565.926 1065.69,563.454 		"/>
		<polygon style="fill:#F6DD7F;" points="1012.14,613.568 1013.709,616.743 1015.273,613.568 1018.781,613.059 1016.242,610.584 
			1016.842,607.093 1013.709,608.74 1010.571,607.093 1011.17,610.584 1008.633,613.059 		"/>
		<polygon style="fill:#F6DD7F;" points="882.683,566.436 884.247,569.612 885.817,566.436 889.324,565.926 886.786,563.454 
			887.385,559.961 884.247,561.61 881.11,559.961 881.714,563.454 879.176,565.926 		"/>
		<polygon style="fill:#F6DD7F;" points="935.955,459.157 932.818,457.51 933.417,461.001 930.883,463.474 934.386,463.983 
			935.955,467.161 937.524,463.983 941.027,463.474 938.494,461.001 939.093,457.51 		"/>
	</g>
	<ellipse style="fill:#CFD1D2;" cx="1067.627" cy="1884.242" rx="493.777" ry="56.024"/>
	<g>
		<g>
			<path style="fill:#856CB0;" d="M452.77,709.402c-2.363,21.747-4.312,43.881-1.004,65.647c3.42,22.529,8.863,44.694,13.559,66.977
				c4.891,23.228,8.55,46.624,8.526,70.412c-0.02,23.345-5.808,45.486-14.168,67.096c-7.43,19.196-16.361,37.703-22.519,57.386
				c-5.827,18.624-7.371,38.166-7.654,57.576c-0.59,41.143,7.186,83.235,22.543,121.386c2.173,5.398,11.021,3.042,8.819-2.431
				c-15.196-37.749-22.246-78.326-22.217-118.955c0.02-21.606,3.02-42.5,9.871-63.001c6.509-19.494,15.732-37.99,22.904-57.243
				c15.323-41.138,12.672-83.381,4.516-125.744c-4.297-22.326-9.812-44.397-13.885-66.772c-4.395-24.088-2.777-48.158-0.146-72.333
				C462.553,703.541,453.403,703.605,452.77,709.402L452.77,709.402z"/>
		</g>
		<path style="fill:#64459B;" d="M457.929,687.023c-3.878,5.474-7.946,10.782-11.771,16.195c-1.067,1.505-2.514,3.559-1.715,5.595
			c1.72,4.354,8.39,0.6,11.722,1.84c3.742,1.393,6.621,3.89,11.191,2.363c2.275-0.762,3.406-2.441,5.851-3.064
			c1.715-0.436,3.255-0.237,3.937-2.232c1.101-3.24-2.685-6.874-3.766-9.566c-1.895-4.706-3.854-8.136-3.966-13.191"/>
		<path style="fill:#64459B;" d="M560.36,517.683c-0.336,82.146-68.171,177.539-100.697,177.539
			c-35.103,0-104.199-107.72-100.692-177.539c2.787-55.542,45.081-100.694,100.692-100.694
			C515.279,416.989,560.589,462.07,560.36,517.683z"/>
		<path style="fill:#49439B;" d="M447.157,657.624c-16.268-12.84-30.251-28.492-42.149-45.42
			c-11.366-16.173-21.622-33.791-28.146-52.523c-9.418-27.05-11.274-55.747-7.581-83.869c-5.949,12.757-9.559,26.938-10.309,41.871
			c-3.508,69.819,65.588,177.539,100.692,177.539c8,0,18.144-5.783,28.887-15.713C473.583,675.324,459.551,667.412,447.157,657.624z
			"/>
		<path style="fill:#7357A5;" d="M540.628,476.284c19.991,35.786,17.657,75.155-5.213,87.93
			c-22.87,12.777-57.617-5.876-77.608-41.661c-19.99-35.786-17.661-75.155,5.209-87.932
			C485.885,421.846,520.633,440.499,540.628,476.284z"/>
		<path style="fill:#FFFFFF;" d="M473.242,430.711c5.861-3.518,18.455,1.311,23.79,3.332c16.2,6.142,32.536,22.427,41.126,37.516
			c12.044,21.14,18.753,48.492,11.133,72.614c-0.692,2.18-2.226-2.341-2.324-2.532c-1.954-3.776-2.46-9.086-3.557-13.179
			c-8.945-33.271-24.692-60.19-51.62-81.851C488.214,443.734,468.828,433.361,473.242,430.711z"/>
	</g>
</g>
<g>
	<g>
		<path style="fill:#A36A55;" d="M1149.027,1549.382c0,0,38.412,64.724,77.457,291.381c5.222,30.309-22.5,17.052-22.5,17.052
			s-126.26-260.477-132.867-291.846C1064.506,1534.602,1149.027,1549.382,1149.027,1549.382z"/>
	</g>
	<g>
		<path style="fill:#5998C5;" d="M1313.265,1286.157c-73.539,168.524-108.696,226.516-136.443,271.41
			c-44.239,71.586-122.11,11.742-116.643-2.119c5.462-13.856,118.358-302.151,152.536-348.533
			C1233.626,1178.54,1328.437,1251.39,1313.265,1286.157z"/>
	</g>
	<g>
		<path style="fill:#5998C5;" d="M1218.737,1797.73c-37.296-204.341-61.101-249.445-61.101-249.445s-102.129-22.407-95.517,8.96
			c5.374,25.493,86.041,200.803,117.466,266.134C1189.465,1816.741,1209.149,1804.787,1218.737,1797.73z"/>
	</g>
	<g>
		<g>
			<path style="fill:#FFFFFF;" d="M1233.411,1865.73c0.068,3.048,0.132,6.1,0.2,9.16c0.053,1.813-0.945,3.649-2.538,4.667
				c-6.802,4.083-18.436,11.26-45.481,14.765c-32.02,3.391-46.972-0.326-59.747-4.984c-1.915-0.748-4.141-2.911-4.302-4.85
				c-0.253-3.162-0.507-6.324-0.76-9.486C1158.479,1877.001,1196.53,1873.839,1233.411,1865.73z"/>
		</g>
		<g>
			<path style="fill:#05263B;" d="M1226.703,1838.726c-1.262,1.681-1.695,3.847-2.821,5.647c-1.14,1.797-2.767,3.33-4.356,4.716
				c-2.845,2.482-5.549,3.532-8.633,1.084c-5.876-4.702-4.609-14.124-9.745-19.657c-3.313-3.6-7.308,2.29-8.955,5.069
				c-2.416,4.047-5.803,7.094-8.76,10.748c-1.969,2.431-2.933,3.421-5.364,5.199c-1.218,0.894-2.47,1.725-3.722,2.548
				c-0.366,0.244-0.716,0.502-1.087,0.738c-4.921,3.133-10.056,5.817-15.24,8.3c-0.229,0.105-0.541,0.234-0.901,0.373
				c-0.137,0.054-0.297,0.105-0.443,0.163c-0.254,0.098-0.516,0.188-0.819,0.287c-0.224,0.076-0.458,0.151-0.711,0.239
				c-0.268,0.085-0.55,0.175-0.853,0.275c-0.297,0.092-0.589,0.185-0.906,0.282c-8.838,2.889-26.392,6.548-29.53,7.51
				c-1.033,0.373-2.124,0.777-2.675,1.686c-1.73,2.794,6.641,5.177,10.149,6.121c17.437,4.992,42.981,5.445,60.287,2.568
				c5.803-0.244,41.998-10.188,41.793-16.894c-0.107-6.127,1.048-12.3,0.965-18.336
				C1234.318,1843.284,1232.817,1830.697,1226.703,1838.726z"/>
		</g>
	</g>
	<g>
		<path style="fill:#FFFFFF;" d="M1506.77,1815.138c0,0,17.262,2.47,21.905-12.294c0,0,28.804,17.276,55.41,58.516
			c26.606,41.237,3.42,80.536-45.476,31.242c-20.838-21.004-27.031-38.203-30.339-50.991
			C1503.818,1824.388,1506.77,1815.138,1506.77,1815.138z"/>
	</g>
	<g>
		<g>
			<path style="fill:#A36A55;" d="M1417.714,1514.77c0,0,45.398,60.032,109.505,280.908c8.575,29.537-20.449,19.459-20.449,19.459
				s-154.558-244.747-164.633-275.181C1332.067,1509.523,1417.714,1514.77,1417.714,1514.77z"/>
		</g>
	</g>
	<g>
		<g>
			<path style="fill:#64AADD;" d="M1514.532,1739.094c-54.47-172.516-72.302-221.819-72.302-221.819s-89.374,54.557-79.303,84.989
				c6.889,20.821,46.792,90.816,93.179,165.259C1469.329,1761.082,1501.524,1745.984,1514.532,1739.094z"/>
		</g>
	</g>
	<g>
		<path style="fill:#F3A187;" d="M1387.078,1320.018l-145.822-14.889c49.803,116.867,127.981,281.988,127.981,281.988
			s68.667,12.241,61.13-35.696C1424.944,1516.944,1414.688,1426.286,1387.078,1320.018z"/>
	</g>
	<g>
		<path style="fill:#64AADD;" d="M1389.387,1320.255l-152.36-15.557c48.029,121.084,125.9,297.566,125.9,297.566
			s92.36-8.253,84.823-56.19C1442.347,1511.692,1421.436,1424.727,1389.387,1320.255z"/>
	</g>
	<g>
		<path style="fill:#05263B;" d="M1506.77,1815.138c0,0,1.837,1.774,4.527-1.016c2.192-2.263-0.668-8.319,5.486-11.595
			c9.028-4.807,10.285,5.43,11.893,0.317c0,0,12.185,6.384,22.767,20.716c10.007,13.554,16.702,18.94,27.713,36.005
			c24.575,38.088,7.298,76.382-37.866,30.853c-20.653-20.819-25.9-33.615-30.49-47.437
			C1505.358,1826.58,1506.77,1815.138,1506.77,1815.138z"/>
	</g>
	<g>
		<g>
			<g>
				<g>
					<path style="fill:#A36A55;" d="M1156.905,759.719c8.005,10.964,8.102,13.481,16.078,26.341
						c32.288,52.069,43.727,58.48,63.094,98.022c8.166,16.665,26.787,54.239,8.814,70.063c-19.678,17.32-48.419,0.85-63.186-13.998
						c-19.61-19.72-29.769-39.289-37.973-65.03c-4.497-14.112-5.481-23.444-38.066-85.634
						C1105.665,789.478,1140.272,761.868,1156.905,759.719z"/>
				</g>
			</g>
		</g>
		<g>
			<g>
				<g>
					<path style="fill:#A36A55;" d="M1113.241,754.735c0.395,9.009,25.276,19.252,37.004,12.821
						c9.822-5.391,10.051-10.938,10.046-10.923c12.779-60.146,10.587-113.033,12.735-158.684
						c2.115-44.894-17.793-16.28-17.793-16.28C1138.376,628.925,1122.142,674.187,1113.241,754.735z"/>
				</g>
			</g>
		</g>
		<g>
			<path style="fill:#A36A55;" d="M1173.056,598.804l2.042-10.41c5.364-0.689,10.684-12.877,15.893-20.592
				c5.403-8.005,7.615-10.884,13.15-19.559c3.264-5.113,1.535-7.194-0.6-7.091c-1.125,0.053-2.948,1.688-2.948,1.688
				c-7.878,9.961-12.375,16.891-15.649,14.015c-1.783-1.569,0.107-6.777,0.107-6.777s3.215-11.922,6.777-28.307
				c1.774-8.155,0.2-10.704-1.827-11.208c-2.047-0.509-4.21,5.847-5.418,11.705c-1.208,5.859-2.976,11.973-5.101,19.905
				c-2.714,10.114-2.899,3.106-2.899,3.106l4.853-29.206c0.448-5.837-0.205-9.101-2.758-9.25c-3.751-0.222-4.365,8.022-4.365,8.022
				s-2.87,13.559-4.404,22.675c-2.1,12.487-4.097,6.692-4.097,6.692l4.278-21.825c1.549-7.016-0.901-8.015-1.788-8.256
				c-3.713-1.016-4.521,6.843-4.521,6.843s-2.5,14.328-4.151,20.979c-1.656,6.648-1.496,1.393-1.496,1.393
				s-0.088-2.227,1.885-14.044c0.736-4.431,0.585-6.689-0.351-7.196c-4.083-2.214-5.729,6.178-5.729,6.178
				s-0.497,2.519-3.225,16.453c-0.624,3.191-1.082,15.303-1.082,15.303s-1.564,22.18,3.177,24.68l-4.716,23.459"/>
		</g>
		<g>
			<g>
				<g>
					<path style="fill:#043F68;" d="M1254.332,903.117c-4.565-9.313-79.24-133.442-92.775-152.818
						c-24.332,8.312-40.711,8.175-62.061,21.829c11.157,34.699,23.805,68.979,36.332,103.203
						c9.228,25.216,26.314,121.693,62.806,122.599c18.919,0.471,42.719-16.202,53.871-30.687
						C1267.083,948.308,1264.257,923.361,1254.332,903.117z"/>
				</g>
			</g>
		</g>
		<g>
			<g>
				<g>
					<path style="fill:#043F68;" d="M1141.066,600.74c-14.928,42.348-33.593,99.186-41.569,171.386
						c0.395,9.008,39.021,1.861,50.748-4.57c9.822-5.391,13.798-11.408,13.798-11.396c12.775-60.146,13.827-150.451,13.852-151.208
						L1141.066,600.74z"/>
				</g>
			</g>
		</g>
	</g>
	<g>
		<path style="fill:#A36A55;" d="M1205.353,1119.59c1.886,29.023,9.915,137.9,22.422,145.617
			c15.211,9.391,45.325,19.924,62.295,19.924c45.271,0,124.297,54.604,120.555,1.084c-6.768-96.85,6.84-169.965,5.413-207.997
			c-3.542-94.132,10.982-155.006-50.572-166.173c-32.974-5.108-32.809-7.598-66.105-7.598c-29.413,0-56.472,4.18-85.554,9.996
			c1.374-0.349,2.353-0.003,2.932,1.035c-23.561,18.202-18.387,51.82-18.387,78.828c0,34.767,2.382,69.045,5.408,103.449
			C1204.393,1104.973,1204.876,1112.264,1205.353,1119.59z"/>
	</g>
	<g>
		<path style="fill:#A36A55;" d="M1374.22,1149.59"/>
	</g>
	<g>
		<g>
			<path style="fill:#A36A55;" d="M1362.81,803.863c-4.897,9.876-21.823,20.709-22.343,11.194
				c-0.322-5.822,1.559-18.046,6.455-27.922c4.896-9.873,3.83-11.525,11.274-7.834
				C1365.641,782.993,1367.706,793.99,1362.81,803.863z"/>
		</g>
	</g>
	<g>
		<path style="fill:#A36A55;" d="M1328.783,829.213c6.163-18.931-58.012,4.665-58.012,4.665l2.733,78.149
			c0,0,23.478,35.932,55.279-4.738C1331.575,903.719,1326.483,836.282,1328.783,829.213z"/>
	</g>
	<g>
		<path style="fill:#8A5B49;" d="M1324.627,828.104c3.118,3.401,4.541,28.268,4.068,49.191
			c-21.155-0.992-43.211,5.164-55.586,23.522c-3.532-3.469,0,0,0,0l-2.339-66.94C1270.771,833.877,1311.925,814.24,1324.627,828.104
			z"/>
	</g>
	<g>
		<path style="fill:#A36A55;" d="M1254.615,869.266c5.598,1.727,40.41,4.256,71.089-15.584c14.723-9.52,19.479-49.454,25.257-67.939
			c3.707-11.864,4.346-5.973,4.424-18.275c0.088-14.139-0.156-27.735-4.814-41.113c-6.036-17.337-26.635-28.127-43.561-31.416
			c-29.837-5.795-66.646-0.258-76.551,33.362c-4.482,15.226-2.041,21.089-3.259,36.877c-1.378,17.832-1.52,35.8,0.824,53.554
			C1229.153,827.3,1240.535,864.92,1254.615,869.266z"/>
	</g>
	<g>
		<path style="fill:#49291B;" d="M1345.387,781.675c-5.544,6.592-16.604,37.058-38.378,32.726
			c-20.906-4.156-27.332-5.208-47.62-0.753c-11.971,2.629-22.636,2.312-32.005-0.451c0.195,1.846,0.395,3.693,0.639,5.535
			c1.13,8.568,12.453,49.284,26.538,53.63c5.593,1.727,40.55,5.24,71.23-14.602c14.729-9.52,19.391-53.532,25.17-72.017
			c0.107-0.344,0.204-0.626,0.307-0.943C1355.394,773.295,1349.153,777.203,1345.387,781.675z"/>
	</g>
	<g>
		<path style="fill:#430000;" d="M1251.579,828.428c0,0,4.721,15.355,16,15.717c11.284,0.366,24.024-5.459,26.568-21.471
			c0,0-9.097,3.274-21.471,4.731C1260.306,828.859,1251.579,828.428,1251.579,828.428z"/>
	</g>
	<g>
		<path style="fill:#F0696E;" d="M1264.082,843.454c1.125,0.392,2.324,0.65,3.62,0.692c6.217,0.203,12.867-1.491,18.017-5.717
			C1278.474,835.593,1270.654,838.92,1264.082,843.454z"/>
	</g>
	<g>
		<path style="fill:#FFFFFF;" d="M1290.771,832.365c1.589-2.702,2.777-5.903,3.377-9.693c0,0-9.097,3.277-21.471,4.734
			c-12.37,1.454-21.097,1.02-21.097,1.02s0.424,3.238,3.63,7.499C1268.569,838.822,1279.511,835.419,1290.771,832.365z"/>
	</g>
	<g>
		<path style="fill:#1A1C37;" d="M1292.842,782.046c-0.103,2.316-1.554,4.136-3.245,4.061c-1.691-0.075-2.977-2.015-2.875-4.331
			c0.102-2.317,1.554-4.136,3.245-4.061C1291.657,777.79,1292.944,779.729,1292.842,782.046z"/>
	</g>
	<g>
		<path style="fill:#1A1C37;" d="M1252.442,781.682c-0.102,2.317-1.554,4.134-3.245,4.061c-1.691-0.076-2.972-2.015-2.875-4.334
			c0.102-2.316,1.559-4.134,3.25-4.06C1251.258,777.424,1252.549,779.364,1252.442,781.682z"/>
	</g>
	<g>
		<polygon style="fill:#815645;" points="1270.478,773.295 1263.965,802.791 1271.648,810.447 1271.648,810.447 1259.702,803.454 		
			"/>
	</g>
	<g>
		<path style="fill:#49291B;" d="M1285.636,758.74c0,0,0.4,0.019,1.096,0.056c0.736,0.046,1.784,0.112,3.035,0.193
			c2.582,0.216,6.086,0.607,9.52,1.549c1.725,0.366,3.381,1.048,4.955,1.542c1.535,0.636,2.948,1.252,4.146,1.798
			c2.299,1.262,3.834,2.102,3.834,2.102c1.988,1.089,2.719,3.586,1.632,5.576c-1.028,1.871-3.294,2.626-5.214,1.807l-0.399-0.173
			c0,0-1.33-0.573-3.328-1.433c-1.018-0.336-2.212-0.723-3.493-1.142c-1.321-0.263-2.67-0.707-4.103-0.857
			c-2.801-0.502-5.705-0.548-7.898-0.529c-1.14,0.034-2.095,0.063-2.757,0.083c-0.702,0.029-1.097,0.046-1.097,0.046
			c-2.933,0.122-5.413-2.156-5.534-5.089c-0.122-2.933,2.153-5.411,5.086-5.535c0.166-0.005,0.326-0.005,0.487,0.003
			L1285.636,758.74z"/>
	</g>
	<g>
		<path style="fill:#49291B;" d="M1256.11,767.709c0,0-0.39-0.005-1.067-0.014c-0.341-0.005-0.755-0.01-1.228-0.015
			c-0.39,0.017-0.824,0.039-1.296,0.061c-0.911-0.005-2.173,0.192-3.454,0.312c-1.276,0.246-2.675,0.409-4.014,0.792
			c-1.37,0.292-2.68,0.743-3.912,1.157c-1.243,0.405-2.304,0.96-3.279,1.342c-1.817,0.948-3.015,1.622-3.015,1.622l-0.292,0.166
			c-1.983,1.111-4.492,0.405-5.598-1.576c-1.038-1.846-0.492-4.148,1.189-5.352c0,0,1.408-1.014,3.61-2.427
			c1.14-0.599,2.441-1.415,3.912-2.068c1.466-0.665,3.045-1.369,4.682-1.895c1.608-0.619,3.274-1.001,4.828-1.444
			c1.598-0.319,3.001-0.675,4.419-0.833c0.687-0.093,1.315-0.176,1.871-0.251c0.472-0.039,0.882-0.073,1.223-0.1
			c0.677-0.056,1.067-0.09,1.067-0.09c2.923-0.243,5.495,1.932,5.74,4.857c0.243,2.926-1.934,5.496-4.858,5.739
			C1256.466,767.704,1256.277,767.712,1256.11,767.709z"/>
	</g>
	<g>
		<path style="fill:#F5B955;" d="M1428.291,1077.071c-0.166-1.705-0.341-3.41-0.531-5.118c-3.839-34.504-3.596-69.288-6.543-103.861
			c-1.072-12.56-0.302-26.015-9.398-35.491c-9.725-10.132-20.385-16.979-33.91-21.045c-8.994-2.708-47.561-16.762-48.263-14.365
			c-1.53,5.192-6.587,24.146-24.731,24.58c-23.459,0.558-27.367-7.386-31.717-18.585c-1.359-3.483-24.215,0.969-26.889,1.873
			c-10.129,3.416-20.843,12.112-29.676,18.105c-0.448,6.402-7.698,14.716-11.357,20.599c-14.991,24.141-19.829,48.999-19.829,76.935
			c0,38.947,0.039,77.898,0,116.845c-0.034,34.945,3.459,69.841,1.769,104.899c-0.643,13.303-8.185,44.071-1.851,56.679
			c8.38,16.699,47.581,23.457,63.746,26.855c34.826,7.317,68.692,13.756,104.458,13.763c18.329,0.002,50.11,7.942,66.841,2.008
			c25.471-9.033,15.313-41.298,18.46-61.128c5.467-34.38-4.088-71.483-6.382-106.163
			C1430.332,1141.948,1431.438,1109.56,1428.291,1077.071z"/>
	</g>
	<g>
		<path style="fill:#043F68;" d="M1473.207,1161.963c-9.9-32.21-18.885-64.707-27.103-97.381
			c-6.519-25.898-4.439-51.374-12.049-76.886c-4.76-15.951-6.002-45.191-17.91-57.593c-9.725-10.131-24.711-14.48-38.236-18.546
			c-6.295-1.895-27.04-9.334-39.191-12.818c-19.411,107.162-1.208,215.389,21.934,320.387c5.749,26.11,11.834,52.143,17.686,78.231
			c3.849,17.174,4.375,44.305,25.096,49.35c26.943,6.56,86.689-22.85,100.404-45.973c11.718-19.766-0.482-49.359-7.522-69.072
			C1488.081,1208.605,1480.398,1185.361,1473.207,1161.963z"/>
	</g>
	<g>
		<path style="fill:#043F68;" d="M1194.63,1305.969c3.152-4.129,5.72-10.57,7.62-20.051c8.536-42.675,14.056-86.117,21.988-128.941
			c15.63-84.358,33.13-168.353,49.437-252.579c-0.161-0.405-0.322-0.802-0.478-1.213c-1.277-3.279-21.618-0.989-37.384,2.321
			c-39.405,8.275-49.159,46.076-55.522,77.201c-10.797,52.801-22.558,105.634-25.32,159.622
			c-1.593,31.108-3.411,62.826-3.717,93.907c-0.171,16.926,2.475,34.87,8.161,50.958
			C1163.974,1300.089,1179.609,1325.645,1194.63,1305.969z"/>
	</g>
	<g>
		<path style="fill:#F4C75F;" d="M1353.017,1256.854c-51.634-35.374-83.956-79.026-111.557-150.665l3.303-1.274
			c27.323,70.911,59.264,114.085,110.256,149.02L1353.017,1256.854z"/>
	</g>
	<g>
		<g>
			<g>
				<g>
					<path style="fill:#A36A55;" d="M1410.649,782.494c3.752,13.047,2.977,15.447,6.046,30.266
						c12.414,59.995,20.945,69.946,25.545,113.737c1.934,18.455,6.499,60.143-15.815,68.821
						c-24.433,9.501-45.758-15.847-54.524-34.87c-11.634-25.257-14.446-47.127-13.296-74.119c0.624-14.799,2.914-23.9-6.3-93.5
						C1352.306,792.823,1394.293,778.793,1410.649,782.494z"/>
				</g>
			</g>
		</g>
		<g>
			<g>
				<g>
					<path style="fill:#A36A55;" d="M1371.36,762.803c-2.724,8.592,17.121,26.768,30.339,24.76
						c11.084-1.686,13.203-6.814,13.194-6.804c32.677-52.085,48.804-102.499,66.519-144.631
						c17.418-41.43-11.108-21.405-11.108-21.405C1438.225,653.303,1407.414,690.224,1371.36,762.803z"/>
				</g>
			</g>
		</g>
		<g>
			<path style="fill:#A36A55;" d="M1481.148,636.942l5.496-9.072c5.271,1.196,14.46-8.419,22.002-13.87
				c7.825-5.659,10.889-7.603,19.07-13.849c4.823-3.678,3.917-6.227,1.876-6.865c-1.077-0.336-3.347,0.572-3.347,0.572
				c-10.826,6.643-17.433,11.605-19.513,7.781c-1.135-2.087,2.431-6.327,2.431-6.327s7.113-10.092,16.093-24.253
				c4.468-7.047,3.874-9.983,2.139-11.152c-1.744-1.181-5.963,4.041-9.11,9.128c-3.148,5.086-6.909,10.221-11.635,16.938
				c-6.022,8.568-3.79,1.919-3.79,1.919l14.601-25.756c2.426-5.325,2.938-8.614,0.59-9.634c-3.445-1.496-6.86,6.034-6.86,6.034
				s-7.352,11.744-11.927,19.778c-6.266,11.004-6.153,4.872-6.153,4.872l11.522-19.021c3.869-6.056,1.91-7.834,1.16-8.37
				c-3.142-2.229-6.597,4.874-6.597,4.874s-7.279,12.594-11.114,18.27c-3.839,5.676-1.88,0.794-1.88,0.794s0.682-2.119,6.592-12.538
				c2.222-3.907,2.85-6.083,2.153-6.877c-3.074-3.484-7.503,3.832-7.503,3.832s-1.339,2.192-8.692,14.338
				c-1.681,2.784-6.275,13.997-6.275,13.997s-9.096,20.292-5.505,24.268l-12.492,20.409"/>
		</g>
		<g>
			<g>
				<g>
					<path style="fill:#043F68;" d="M1454.478,950.528c-0.292-4.28-0.833-8.409-1.661-12.309
						c-3.99-18.767-9.023-37.622-12.712-56.689c-6.84-35.376-12.623-71.42-21.846-106.28c-25.705-0.56-41.042-6.322-65.783-0.841
						c-1.452,36.421-1.359,72.96-1.369,109.403c-0.005,26.102-3.313,50.324,7.986,74.945c3.897,8.492,9.841,14.263,15.337,21.712
						c12.852,17.42,22.475,26.663,41.296,37.52c11.625,6.707,22.889,17.566,28.385,1.179
						C1450.683,999.541,1455.999,972.942,1454.478,950.528z"/>
				</g>
			</g>
		</g>
		<g>
			<g>
				<g>
					<path style="fill:#043F68;" d="M1450.444,627.763c-28.585,34.633-65.652,81.589-97.968,146.643
						c-2.729,8.595,36.005,15.165,49.223,13.157c11.084-1.686,16.882-5.968,16.877-5.956
						c32.677-52.085,64.716-136.524,64.999-137.228L1450.444,627.763z"/>
				</g>
			</g>
		</g>
	</g>
</g>
<g>
	<g>
		<g>
			<path style="fill:#F3A187;" d="M927.434,1602.714c0,0,24.823,64.424,25.403,275.391c0.078,28.214-22.952,11.978-22.952,11.978
				s-74.28-254.921-75.454-284.304C853.261,1576.398,927.434,1602.714,927.434,1602.714z"/>
		</g>
		<g>
			<path style="fill:#003358;" d="M974.732,1734.466c-15.24-107.087-18.865-145.861-18.865-145.861s-106.694,3.386-110.626,32.526
				c-1.949,14.438,2.289,60.007,8.974,129.057L974.732,1734.466z"/>
		</g>
	</g>
	<g>
		<path style="fill:#F3A187;" d="M915.015,1254.471c15.469,40.565,13.272,61.796,14.529,88.185
			c6.543,137.449,4.794,255.196-0.234,295.576c-5.495,44.17-62.933,15.988-62.933,15.988s-58.636-357.741-48.965-388.847
			C827.083,1234.269,902.611,1221.953,915.015,1254.471z"/>
	</g>
	<g>
		<path style="fill:#003358;" d="M921.061,1242.625c15.474,40.563,21.925,103.588,23.181,129.978
			c6.539,137.447,14.334,218.945,9.311,259.325c-5.495,44.17-103.176,33.505-103.176,33.505s-43.722-367.686-34.051-398.791
			C825.997,1235.536,908.662,1210.104,921.061,1242.625z"/>
	</g>
	<g>
		<path style="fill:#C14B3D;" d="M840.194,956.381c2.183-0.314,4.414-0.061,6.655,1.198c3.717,2.093,4.522,9.62,8.556,10.814
			c6.874,2.031,9.637-7.732,15.142-9.06c5.832-1.405,8.253,2.714,12.56,5.235c31.42,18.4,52.707-36.465,54.295-59.361
			c0.809-11.73-3.81-26.672-0.458-37.971c2.114-7.118,6.543-12.394,7.308-21.072c0.867-9.832-0.385-17.53-3.23-26.896
			c-5.408-17.79,2.928-31.705-2.733-49.306c-5.388-16.738-17.169-29.632-31.079-39.947c-21.432-15.89-43.562-21.644-69.744-18.962
			c-19.674,2.015-43.703,6.65-55.235,24.904c-4.4,6.962-5.364,15.413-8.824,22.845c-9.632,20.738-25.666,17.284-44.16,19.418
			c-16.945,1.958-6.451,21.111-18.558,28.036c-9.486,5.428-15.995-3.384-20.672,9.608c-2.008,5.581-1.286,13.291-5.652,17.856
			c-2.68,2.799-5.427,2.197-8.575,3.997c-7.459,4.268-11.308,9.596-9.666,18.159c1.53,7.973,6.148,13.907,5.944,22.487
			c-0.273,11.491-3.274,20.502,6.095,29.693c6.27,6.151,10.875,3.661,18.509,5.5c14.679,3.537,4.365,19.969,13.622,28.93
			c10.504,10.166,25.637-2.694,32.609,2.875c5.286,4.217,2.168,9.081,10.821,9.927c8.317,0.806,12.429-5.199,19.274-7.123
			c6.723-1.888,15.016,1.365,20.823,4.624c6.451,3.63,12.414,10.168,19.43,12.516c9.179,3.072,11.625-1.973,19.143-5.961
			C834.835,958.05,837.475,956.774,840.194,956.381z"/>
	</g>
	<g>
		<g>
			<g>
				<g>
					<path style="fill:#F3A187;" d="M1002.221,770.416c-6.899,10.365-6.889,12.675-13.69,24.777
						c-27.527,48.994-30.159,50.982-46.349,87.983c-22.051,50.407-45.447,107.971-20.166,129.588
						c10.348,8.845,69.818-86.587,86.582-148.253c3.567-13.111,7.206-18.812,34.602-77.092
						C1043.204,787.414,1017.553,771.729,1002.221,770.416z"/>
				</g>
			</g>
			<g>
				<g>
					<path style="fill:#5BCBF5;" d="M1009.207,889.921c-0.434-0.21-0.882-0.404-1.321-0.592
						c-21.038-8.992-42.367-22.281-58.27-38.831c-2.305-2.402-27.947,38.933-29.915,42.129
						c-8.838,14.339-25.018,29.028-28.477,45.74c-5.554,26.84,11.737,59.162,22.163,82.784c5.53,12.531,7.265,17.61,18.393,7.177
						c11.186-10.497,18.158-24.507,26.952-36.857c12.044-16.913,22.012-35.035,29.944-54.217c3.439-8.331,6.343-15.868,11.24-23.345
						c2.899-4.424,15.172-15.578,12.448-21.267C1011.751,891.358,1010.523,890.557,1009.207,889.921z"/>
				</g>
			</g>
		</g>
		<g>
			<g>
				<g>
					<path style="fill:#F3A187;" d="M1043.361,784.786c0.75,8.236-20.609,20.606-32.059,16.199
						c-9.593-3.693-10.48-8.706-10.475-8.694c-19.006-53.104-23.513-101.447-31.074-142.682
						c-7.435-40.548,14.168-16.984,14.168-16.984C1005.056,673.512,1025.373,712.659,1043.361,784.786z"/>
				</g>
			</g>
		</g>
		<g>
			<path style="fill:#F3A187;" d="M969.831,650.392l-3.138-9.211c-4.96,0.031-11.294-10.395-16.974-16.765
				c-5.896-6.613-8.258-8.96-14.358-16.165c-3.591-4.246-2.28-6.351-0.326-6.519c1.033-0.09,2.884,1.171,2.884,1.171
				c8.39,8.085,13.33,13.835,15.951,10.819c1.427-1.647-0.935-6.148-0.935-6.148s-4.38-10.443-9.632-24.899
				c-2.616-7.196-1.501-9.705,0.283-10.414c1.792-0.713,4.545,4.797,6.363,9.976c1.817,5.177,4.175,10.519,7.079,17.466
				c3.712,8.862,3.021,2.468,3.021,2.468l-8-25.954c-1.126-5.249-0.935-8.295,1.369-8.745c3.381-0.663,4.955,6.758,4.955,6.758
				s4.273,11.971,6.792,20.068c3.44,11.094,4.545,5.579,4.545,5.579l-6.572-19.31c-2.271-6.19-0.166-7.396,0.614-7.727
				c3.249-1.379,4.95,5.669,4.95,5.669s4.029,12.716,6.348,18.558c2.324,5.839,1.535,1.082,1.535,1.082s-0.2-2.034-3.439-12.533
				c-1.218-3.936-1.355-6.01-0.565-6.585c3.435-2.514,5.963,4.914,5.963,4.914s0.76,2.226,4.955,14.557
				c0.96,2.826,2.865,13.778,2.865,13.778s4.146,19.971,0.141,22.826l7.172,20.743"/>
		</g>
	</g>
	<g>
		<path style="fill:#F3A187;" d="M911.639,1117.601c-2.417,23.718-6.217,49.523-4.259,73.35c1.393,16.957,5.14,34.01,8.643,50.921
			l-159.006-5.958c8.638-16.229,15.025-34.709,16.814-52.051c0.609-5.92,0.93-9.998,1.247-16.007
			c1.71-32.294,0.297-62.012-1.447-94.209c-1.661-30.755-11.557-65.513-1.077-95.296c4.059-11.593,1.321-50.777,4.409-51.493
			c11.976-2.765,44.307-5.963,48.887-5.688c9.413,0.565,15.274,4.263,24.692,4.19l-0.044,1.177
			c16.833-1.198,32.609,1.863,45.038,4.979c0,0,8.165,47.686,17.018,65.233c13.316,26.388,19.459,56.185,7.508,83.861
			C916.745,1088.286,912.657,1107.604,911.639,1117.601z"/>
	</g>
	<g>
		<path style="fill:#003358;" d="M772.121,1194.778l141.042,23.837c0.731,11.418,25.686,92.392,26.178,103.649
			c0.351,8.083-24.746-2.185-28.901,5.367c0,0-75.508-16.409-96.56-21.613c-14.611-1.479-29.228-2.958-43.839-4.439
			c-11.084-1.121-53.432-4.721-47.23-19.366C734.849,1253.806,758.947,1210.895,772.121,1194.778z"/>
	</g>
	<g>
		<g>
			<path style="fill:#F3A187;" d="M797.577,1632.715c0,0-40.989-55.557-218.577-169.442c-23.746-15.23-22.441,12.921-22.441,12.921
				s141.968,162.363,166.114,179.145C746.82,1672.12,797.577,1632.715,797.577,1632.715z"/>
		</g>
		<g>
			<path style="fill:#003358;" d="M732.637,1510.008c68.677,83.564,94.821,112.426,94.821,112.426s-74.553,76.392-98.699,59.61
				c-11.961-8.314-42.709-42.217-89.106-93.786L732.637,1510.008z"/>
		</g>
		<g>
			<g>
				<path style="fill:#FFFFFF;" d="M584.029,1449.065c-1.218-2.516-2.426-5.042-3.644-7.569c-0.711-1.505-2.29-2.592-4.015-2.765
					c-7.265-0.509-19.762-1.535-43.333,6.843c-27.586,10.541-38.265,19.798-46.772,28.918c-1.257,1.408-2.178,4.103-1.5,5.754
					c1.106,2.692,2.212,5.381,3.318,8.073C518.07,1471.01,550.499,1457.774,584.029,1449.065z"/>
			</g>
			<g>
				<path style="fill:#05263B;" d="M589.768,1473.935c-1.73-0.85-2.981-2.441-4.658-3.442c-1.676-0.998-3.64-1.573-5.515-2.046
					c-3.357-0.848-6.007-0.582-7.513,2.704c-2.85,6.287,2.105,13.464,0.205,20.122c-1.213,4.324-6.928,1.17-9.432-0.419
					c-3.654-2.305-7.688-3.386-11.625-5.147c-2.621-1.169-3.825-1.577-6.548-2.02c-1.364-0.224-2.738-0.38-4.102-0.536
					c-0.4-0.046-0.794-0.112-1.194-0.151c-5.33-0.514-10.646-0.573-15.913-0.448c-0.229,0.007-0.541,0.034-0.891,0.071
					c-0.136,0.015-0.287,0.037-0.439,0.052c-0.243,0.024-0.497,0.063-0.784,0.104c-0.214,0.032-0.438,0.068-0.677,0.1
					c-0.258,0.041-0.526,0.087-0.814,0.131c-0.283,0.049-0.56,0.09-0.858,0.144c-8.424,1.313-24.302,5.623-27.269,6.136
					c-0.999,0.129-2.056,0.251-2.889-0.263c-2.572-1.564,3.279-6.992,5.754-9.225c12.18-11.333,32.877-22.324,48.224-27.167
					c4.843-2.215,38.573-9.135,41.198-3.569c2.461,5.057,5.968,9.622,8.409,14.594
					C594.104,1467.041,598.109,1477.957,589.768,1473.935z"/>
			</g>
		</g>
	</g>
	<g>
		<path style="fill:#F3A187;" d="M728.194,1279.87c-13.486,41.266-17.544,64.855-17.52,91.276
			c0.127,137.603,27.172,258.799,34.148,298.886c7.635,43.854,63.635,12.918,63.635,12.918s41.223-360.163,30.056-390.762
			C827.342,1261.589,739.01,1246.788,728.194,1279.87z"/>
	</g>
	<g>
		<path style="fill:#003358;" d="M735.356,1258.04c-29.588,47.761-24.707,86.684-24.682,113.106
			c0.127,137.603,2.651,253.675,9.627,293.766c7.63,43.851,104.682,28.465,104.682,28.465s26.573-385.583,15.406-416.185
			C829.222,1246.595,753.685,1228.454,735.356,1258.04z"/>
	</g>
	<g>
		<path style="fill:#F3A187;" d="M785.578,1163.777"/>
	</g>
	<g>
		<g>
			<path style="fill:#F3A187;" d="M800.297,828.618c4.146,9.221,19.294,19.732,20.097,11.028c0.497-5.325-0.809-16.597-4.96-25.815
				c-4.146-9.221-3.108-10.697-10.061-7.569C798.421,809.39,796.15,819.4,800.297,828.618z"/>
		</g>
	</g>
	<g>
		<path style="fill:#F3A187;" d="M830.615,853.025c-4.998-17.566,53.018,6.268,53.018,6.268l-5.194,71.539
			c0,0-22.753,32.129-50.505-6.241C825.5,921.224,832.481,859.583,830.615,853.025z"/>
	</g>
	<g>
		<path style="fill:#D9907A;" d="M834.464,852.15c-2.977,3.011-5.135,25.754-5.423,44.95c19.43-0.183,39.44,6.219,50.144,23.471
			c3.362-3.06,0,0,0,0l4.448-61.279C883.634,859.293,846.581,839.878,834.464,852.15z"/>
	</g>
	<g>
		<path style="fill:#F3A187;" d="M888.223,896.94c-12.492,4.433-34.807-7.025-56.872-24.626
			c-13.628-10.867-12.828-33.001-17.204-49.086c-2.806-10.324-1.788-21.569-1.457-32.151c0.375-11.976,2.631-24.616,6.992-35.781
			c1.9-4.857,5.174-8.981,8.434-12.986c2.178-2.68,4.458-5.474,7.732-6.821c2.904-1.193,6.236-1.301,9.301-1.834
			c5.656-0.984,11.269-1.986,16.979-2.619c11.932-1.318,24.566,1.298,35.684,5.948c9.686,4.047,16.916,7.954,20.458,18.405
			c3.712,10.935,2.441,22.321,3.391,33.783c1.676,20.18,4.882,39.366,0.112,59.471C920.053,855.877,905.583,890.779,888.223,896.94z
			"/>
	</g>
	<g>
		<path style="fill:#430000;" d="M900.871,862.16c0,0-4.847,13.914-15.206,13.859c-10.353-0.053-21.827-5.827-23.615-20.594
			c0,0,8.229,3.315,19.523,5.074C892.867,862.257,900.871,862.16,900.871,862.16z"/>
	</g>
	<g>
		<path style="fill:#F0696E;" d="M889.008,875.509c-1.047,0.322-2.153,0.517-3.342,0.509c-5.706-0.029-11.742-1.807-16.322-5.859
			C876.087,867.809,883.137,871.127,889.008,875.509z"/>
	</g>
	<g>
		<path style="fill:#FFFFFF;" d="M864.818,864.423c-1.365-2.529-2.343-5.505-2.767-8.999c0,0,8.229,3.315,19.518,5.074
			c11.294,1.759,19.303,1.661,19.303,1.661s-0.497,2.953-3.576,6.748C884.949,871.105,875.03,867.61,864.818,864.423z"/>
	</g>
	<g>
		<path style="fill:#1A1C37;" d="M864.642,818.228c0.019,2.129,1.286,3.844,2.841,3.835c1.549-0.01,2.796-1.745,2.782-3.874
			c-0.014-2.127-1.286-3.842-2.836-3.832C865.875,814.367,864.633,816.101,864.642,818.228z"/>
	</g>
	<g>
		<path style="fill:#1A1C37;" d="M901.69,819.283c0.014,2.127,1.281,3.844,2.836,3.832c1.549-0.01,2.796-1.744,2.782-3.871
			c-0.014-2.129-1.286-3.844-2.836-3.834C902.917,815.419,901.675,817.154,901.69,819.283z"/>
	</g>
	<g>
		<path style="fill:#00BEF3;" d="M753.032,990.301c2.013-17.603,3.761-39.293,10.222-54.102
			c5.652-12.94,24.511-13.839,37.578-15.249c3.386-0.363,24.311-2.792,25.685,0.964c2.568,10.295,4.38,13.869,17.389,16.373
			c13.671,2.628,29.617,2.857,35.771-12.013c0.019-0.046,0.019-0.087,0.039-0.134c1.169-3.228,24.249,5.837,26.826,8.499
			c9.12,9.423,11.917,33.425,15.288,45.851c8.117,29.9,13.764,60.952,13.885,92.017c0.117,29.374-7.824,59.562-14.601,88.053
			c-3.06,12.87-5.413,20.168-17.842,23.103c-14.339,3.389-30.631,3.825-45.32,4.721c-25.062,1.528-50.431,0.478-74.499-7.225
			c-22.426-7.177-26.899-23.766-32.112-45.995c-10.509-44.826-5.433-92.144,0.74-137.211
			C752.418,995.524,752.73,992.959,753.032,990.301z"/>
	</g>
	<g>
		<path style="fill:#C14B3D;" d="M799.946,806.023c9.725-4.96,9.573,9.279,13.87,12.734c6.159,4.95,7.362-3.031,9.062-7.033
			c2.431-5.739,8.186-12.321,13.384-15.686c2.704-1.749,5.744-3.155,8.482-5.047c5.189-3.581,11.508-7.203,15.654-11.978
			c6.938-7.985,6.319-14.709,4.2-24.721c-2.582-12.19-10.626-22.056-21.081-28.256c-9.296-5.513-21.136,2.073-26.719,9.671
			c-2.875,3.91-8.127,9.698-9.423,14.3"/>
	</g>
	<g>
		<g>
			<path style="fill:#C14B3D;" d="M929.636,815.083c-13.135-15.527-29.369-30.655-46.753-41.34
				c-5.121-3.15-10.972-4.821-15.089-9.489c-4.273-4.843-6.997-11.323-9.974-17.006c-2.543-4.863-5.802-9.381-8.048-14.405
				c-2.763-6.187-3.557-12.507-2.991-19.264c0.833-9.895,16.375-5.478,22.772-4.392c29.885,5.074,56.263,26.31,67.084,54.692
				c2.982,7.825,3.245,16.346,4.633,24.784c2.572,15.635,1.915,30.429-1.12,45.839C941.017,830.085,935.892,822.479,929.636,815.083
				z"/>
		</g>
	</g>
	<g>
		<polygon style="fill:#D18B76;" points="885.324,814.219 890.284,841.48 882.976,848.235 882.976,848.235 894.167,842.235 		"/>
	</g>
	<g>
		<path style="fill:#C14B3D;" d="M871.814,798.735c0,0-1.135,0.08-2.845,0.205c-0.823,0.034-1.851,0.136-3.045,0.375
			c-1.155,0.207-2.388,0.428-3.62,0.648c-1.164,0.324-2.324,0.648-3.41,0.952c-1.092,0.26-2.095,0.648-2.948,1.011
			c-1.705,0.687-2.841,1.145-2.841,1.145c-1.286,0.519-1.905,1.978-1.383,3.262c0.487,1.213,1.822,1.834,3.05,1.459l0.366-0.112
			c0,0,1.008-0.309,2.518-0.777c0.741-0.248,1.622-0.516,2.631-0.672c0.989-0.193,2.046-0.397,3.094-0.604
			c1.023-0.1,2.042-0.202,3.001-0.297c0.911-0.134,1.871-0.161,2.752-0.127c1.715,0.014,2.85,0.024,2.85,0.024h0.039
			c1.798,0.012,3.259-1.43,3.279-3.225c0.01-1.796-1.432-3.262-3.225-3.274C871.99,798.725,871.897,798.728,871.814,798.735z"/>
	</g>
	<g>
		<path style="fill:#C14B3D;" d="M898.825,804.72c0,0,1.135,0.078,2.84,0.19c0.882,0.034,1.842,0.131,2.739,0.334
			c0.95,0.166,1.958,0.343,2.967,0.521c1.038,0.282,2.07,0.567,3.04,0.833c0.999,0.229,1.851,0.563,2.577,0.868
			c1.471,0.577,2.451,0.962,2.451,0.962l0.351,0.137c1.286,0.507,2.738-0.129,3.245-1.418c0.478-1.218-0.073-2.589-1.223-3.162
			c0,0-1.097-0.541-2.743-1.354c-0.829-0.424-1.798-0.887-2.86-1.228c-1.067-0.385-2.202-0.794-3.337-1.203
			c-1.208-0.314-2.427-0.626-3.562-0.919c-1.174-0.329-2.188-0.506-3.011-0.602c-1.691-0.25-2.821-0.419-2.821-0.419
			c-1.774-0.263-3.425,0.964-3.688,2.741c-0.263,1.776,0.965,3.427,2.738,3.69c0.083,0.013,0.171,0.022,0.248,0.027L898.825,804.72z
			"/>
	</g>
	<g>
		<path style="fill:#FDBC5F;" d="M797.709,872.922c-3.761-9.013,4.112-27.654,13.398-37.676l1.885-2.037l0.989,2.592
			c0.41,1.069,9.954,26.358,3.269,37.415c-1.802,2.977-4.56,4.706-8.205,5.138c-0.955,0.112-1.846,0.153-2.665,0.124c0,0,0,0-0.01,0
			C801.051,878.299,798.722,875.359,797.709,872.922z M800.896,871.597c0.921,2.214,2.757,3.337,5.593,3.434h0.005
			c0.663,0.022,1.378-0.012,2.148-0.102c2.563-0.304,4.414-1.449,5.652-3.495c4.653-7.689-0.326-24.894-2.562-31.625
			C804.189,849.237,797.997,864.655,800.896,871.597z"/>
	</g>
	<g>
		<g>
			<path style="fill:#FFFFFF;" d="M924.228,1891.861c0.136,2.792,0.278,5.591,0.419,8.392c0.068,1.661,1.101,3.279,2.626,4.104
				c6.495,3.289,17.613,9.089,42.582,10.516c29.52,0.999,42.953-3.386,54.339-8.485c1.7-0.811,3.596-2.938,3.615-4.721
				c0.024-2.911,0.049-5.82,0.073-8.731C993.529,1897.248,958.508,1896.855,924.228,1891.861z"/>
		</g>
		<g>
			<path style="fill:#05263B;" d="M928.589,1866.714c1.267,1.454,1.803,3.408,2.958,4.982c1.154,1.569,2.743,2.865,4.288,4.027
				c2.767,2.085,5.31,2.867,7.971,0.426c5.067-4.689,3.289-13.225,7.625-18.626c2.802-3.513,6.836,1.613,8.531,4.048
				c2.475,3.542,5.773,6.108,8.716,9.26c1.958,2.092,2.909,2.936,5.252,4.402c1.169,0.738,2.373,1.415,3.571,2.088
				c0.351,0.197,0.687,0.412,1.043,0.602c4.711,2.545,9.583,4.663,14.49,6.592c0.215,0.083,0.511,0.18,0.848,0.282
				c0.127,0.039,0.278,0.076,0.419,0.122c0.239,0.071,0.487,0.137,0.765,0.207c0.21,0.054,0.434,0.11,0.668,0.171
				c0.253,0.063,0.516,0.127,0.799,0.198c0.277,0.063,0.55,0.131,0.848,0.199c8.273,2.061,24.575,4.253,27.508,4.931
				c0.969,0.27,1.998,0.57,2.563,1.364c1.764,2.444-5.734,5.172-8.882,6.271c-15.63,5.712-38.967,7.807-54.992,6.312
				c-5.325,0.158-39.094-6.56-39.347-12.709c-0.307-5.613-1.769-11.184-2.09-16.714
				C921.919,1871.384,922.464,1859.769,928.589,1866.714z"/>
		</g>
	</g>
	<g>
		<g>
			<path style="fill:#8E5BA5;" d="M806.898,744.414l64.185-166.752l52.746,170.718l-0.073-0.003
				c0.039,0.151,0.063,0.305,0.053,0.456c-0.18,5.394-26.504,8.877-58.792,7.781c-32.292-1.094-58.319-6.353-58.139-11.744
				c0.005-0.154,0.039-0.304,0.088-0.453L806.898,744.414z"/>
		</g>
		<g>
			<path style="fill:#F4C14F;" d="M915.502,753.527c-29.866-27.006-44.239-97.369-43.342-172.383c0,0,14.222,75.51,18.475,95.247
				c10.733,49.747,33.193,71.988,33.193,71.988l-0.073-0.003c0.039,0.151,0.058,0.305,0.053,0.456
				C923.79,749.529,923.38,751.989,915.502,753.527z"/>
		</g>
		<g>
			<path style="fill:#F4C14F;" d="M891.273,756.459c-24.204-37.841-39.157-82.246-40.073-127.147l19.883-51.651
				c0,0-32.492,66.814,31.182,177.987C898.903,755.995,895.2,756.262,891.273,756.459z"/>
		</g>
		<g>
			<path style="fill:#F4C14F;" d="M865.017,756.613c-15.552-24.148-25.763-58.906-29.286-87.115l6.081-15.786
				c3.503,39.581,17.53,77.118,35.927,103.15C871.892,756.988,871.507,756.835,865.017,756.613
				C864.116,756.584,865.904,756.652,865.017,756.613z"/>
		</g>
		<g>
			<path style="fill:#F4C14F;" d="M830.206,751.729c-5.822-10.39-10.227-21.318-13.579-32.599l9.33-24.246
				c4.458,23.674,10.232,40.382,22.84,61.011c-8.419-0.548-10.747-1.191-17.462-2.217
				C830.957,753.029,830.571,752.386,830.206,751.729z"/>
		</g>
		<g>
			<path style="fill:#8E5BA5;" d="M871.083,577.661c0,0,5.175-24.495-12.575-31.457l-6.524,7.347
				C851.984,553.551,867.195,564.83,871.083,577.661z"/>
		</g>
		<g>
			<path style="fill:#8E5BA5;" d="M871.083,577.661c0,0-14.83-20.171-31.844-11.559l1.14,9.758
				C840.379,575.86,858.922,572.019,871.083,577.661z"/>
		</g>
		<g>
			<path style="fill:#8E5BA5;" d="M871.078,577.761c0,0,21.354-13.069,14.212-30.75l-9.817,0.309
				C875.473,547.32,877.729,566.124,871.078,577.761z"/>
		</g>
		<g>
			<path style="fill:#8E5BA5;" d="M870.338,577.037c0,0,23.362,9.001,33.052-7.42l-6.221-7.608
				C897.169,562.01,883.619,575.239,870.338,577.037z"/>
		</g>
		<g>
			<polygon style="fill:#FFFFFF;" points="917.475,742.674 891.176,660.552 910.508,745.597 			"/>
		</g>
	</g>
	<g>
		<g>
			<g>
				<g>
					<path style="fill:#F3A187;" d="M798.523,786.036c-4.901,11.449-4.478,13.717-8.955,26.855
						c-18.159,53.186-20.38,55.62-29.569,94.947c-12.512,53.579-24.2,88.046,4.594,104.704c11.781,6.814,52.054-71.456,57.32-135.14
						c1.116-13.544,3.654-19.807,19.995-82.102C841.909,795.293,813.836,784.538,798.523,786.036z"/>
				</g>
			</g>
			<g>
				<g>
					<path style="fill:#5BCBF5;" d="M827.137,902.274c-0.468-0.127-0.945-0.237-1.408-0.341
						c-22.324-5.013-45.715-14.197-64.361-27.578c-4.916-3.525-23.264,62.007-24.312,68.624
						c-5.286,33.469,4.731,67.552,10.646,100.258c12.307-2.424,21.817-16.799,29.695-26.202
						c14.251-17.013,24.931-36.375,33.623-56.718c3.634-8.521,24.97-48.758,19.708-55.944
						C829.889,903.224,828.54,902.662,827.137,902.274z"/>
				</g>
			</g>
		</g>
		<g>
			<g>
				<g>
					<path style="fill:#F3A187;" d="M841.587,792.681c2.237,7.964-16.516,24.012-28.58,21.764
						c-10.1-1.885-11.888-6.655-11.883-6.643c-28.351-48.76-41.574-95.474-56.516-134.646c-14.69-38.519,10.84-19.282,10.84-19.282
						C783.673,690.236,810.776,725.032,841.587,792.681z"/>
				</g>
			</g>
		</g>
		<g>
			<path style="fill:#F3A187;" d="M744.827,673.909l-4.76-8.485c-4.872,0.933-12.999-8.166-19.747-13.396
				c-6.996-5.43-9.744-7.306-17.057-13.284c-4.302-3.52-3.396-5.829-1.505-6.351c0.994-0.275,3.05,0.628,3.05,0.628
				c9.72,6.424,15.625,11.177,17.647,7.734c1.111-1.88-2.032-5.875-2.032-5.875s-6.212-9.471-14.002-22.731
				c-3.883-6.599-3.24-9.271-1.622-10.29c1.642-1.028,5.345,3.89,8.078,8.65c2.729,4.758,6.017,9.583,10.139,15.886
				c5.257,8.041,3.415,1.878,3.415,1.878l-12.589-24.064c-2.061-4.957-2.427-7.99-0.244-8.85c3.206-1.267,6.1,5.742,6.1,5.742
				s6.382,10.994,10.329,18.499c5.408,10.282,5.491,4.658,5.491,4.658l-9.978-17.793c-3.357-5.671-1.51-7.243-0.804-7.708
				c2.948-1.949,5.9,4.67,5.9,4.67s6.28,11.771,9.622,17.094c3.342,5.32,1.7,0.787,1.7,0.787s-0.56-1.966-5.656-11.7
				c-1.915-3.649-2.426-5.664-1.759-6.37c2.923-3.099,6.758,3.744,6.758,3.744s1.159,2.051,7.522,13.413
				c1.457,2.604,5.325,13.025,5.325,13.025s7.708,18.885,4.292,22.419l10.821,19.096"/>
		</g>
	</g>
</g>
</svg>
